<svg width="106" height="23" viewBox="0 0 106 23" fill="none" xmlns="http://www.w3.org/2000/svg">
<path d="M90.8683 22.6231H83.375V0H90.916L98.5048 7.73194V12.1229L89.5796 3.00687H86.4296V19.5685H90.8683V22.6231ZM105.998 22.6231H98.4571L90.8683 14.8434V10.4524L99.7934 19.6162H102.943V3.05459H98.5048V0H105.998V22.6231Z" fill="#424242"/>
<path d="M67.5303 7.44553V15.8457H66.2416V17.3252H71.3485V15.8457H69.9644V12.3138H70.7758L73.6395 15.8457H72.5417V17.3252H77.7441V15.8457H76.6941L72.5417 11.1206L76.0259 7.44553H77.5532V5.96596H72.6372V7.44553H73.8781L70.9667 10.8342H70.0121V7.44553H71.2531V5.96596H65.7644V7.44553H67.5303ZM59.3688 5.0114L63.4257 4.29548L62.9007 2.48181L59.0347 3.86592L59.3688 5.0114ZM63.3302 7.44553V5.96596H57.6506V7.44553H59.4165V15.8457H58.1279V17.3252H63.8552V15.8457H61.8507V7.44553H63.3302ZM55.5983 7.44553V5.96596H50.0141V7.44553H52.5914V14.0797H52.4482L46.2436 5.96596H42.2822V7.44553H44.1913L44.0958 15.8457H42.7594V17.3252H48.4868V15.8457H45.7663L45.6708 9.16374H45.8618L52.0187 17.4207H54.1187L54.2619 7.54098H55.5983V7.44553ZM40.2776 7.44553V5.96596H34.6934V7.44553H37.2707V14.0797H37.1275L30.9229 5.96596H26.9615V7.44553H28.8706L28.7274 15.8457H27.391V17.3252H33.1184V15.8457H30.3979L30.3024 9.16374H30.4933L36.6503 17.4207H38.7503L38.8935 7.54098H40.2776V7.44553ZM14.8385 17.3252H24.8137V13.6502H22.8091L22.6659 15.8457H18.5136V12.3615H23.2387V10.8342H18.5136V7.44553H22.0455L22.1887 9.59329H24.1932V6.01369H14.3135V7.49326H16.0795V15.8457H14.8385V17.3252ZM5.34067 7.44553C8.34753 7.44553 9.73165 8.44782 9.73165 11.8365C9.73165 14.2706 8.87254 15.8457 6.00886 15.8457H4.62475V7.44553H5.34067ZM0.376953 5.96596V7.44553H2.14289V15.8457H0.854233V17.3252H5.81795C10.543 17.3252 12.309 14.7956 12.309 11.5979C12.309 8.40009 10.7817 5.96596 5.86568 5.96596H0.376953Z" fill="#424242"/>
</svg>
