<svg width="30" height="30" viewBox="0 0 30 30" fill="none" xmlns="http://www.w3.org/2000/svg">
<path fill-rule="evenodd" clip-rule="evenodd" d="M0 27.5001C0 28.8813 1.11882 30 2.49988 30H27.5001C28.8813 30 30 28.8813 30 27.5001V2.49988C30 1.11875 28.8813 0 27.5001 0H2.49995C1.11882 0 6.88848e-05 1.11882 6.88848e-05 2.49988V27.5001H0ZM15.6251 26.25V16.25H13.1251V12.4999H15.6251C15.6251 6.05619 15.8998 5.625 23.7502 5.625V9.37503C19.6124 9.37503 20.0001 9.60631 20.0001 12.5H23.7502V16.2501H20.0001V26.25H15.6251V26.25Z" fill="#20232D"/>
</svg>
