<svg width="292" height="235" viewBox="0 0 292 235" fill="none" xmlns="http://www.w3.org/2000/svg">
<path d="M143.664 217.345C139.945 217.345 136.398 216.562 133.804 215.083L18.422 148.114C15.8272 146.636 14.4434 144.549 14.4434 142.287C14.4434 139.504 16.5192 136.808 20.0654 134.721L132.247 69.5781C138.993 65.6644 149.113 65.2295 154.994 68.6214L270.376 135.59C272.971 137.069 274.354 139.156 274.354 141.418C274.354 144.201 272.279 146.897 268.732 148.984L156.551 214.127C152.832 216.301 148.161 217.345 143.664 217.345ZM133.977 214.735C139.685 218.04 149.718 217.606 156.292 213.779L268.473 148.636C271.933 146.636 273.836 144.027 273.836 141.418C273.836 139.33 272.452 137.33 270.03 135.938L154.648 68.9693C148.94 65.6644 138.907 66.0992 132.333 69.926L20.2384 134.982C16.7787 136.982 14.8758 139.591 14.8758 142.2C14.8758 144.288 16.2597 146.288 18.6815 147.68L133.977 214.735Z" fill="#328BF2"/>
<path d="M115.814 88.0163C120.639 88.0163 124.55 84.0835 124.55 79.2321C124.55 74.3807 120.639 70.4479 115.814 70.4479C110.989 70.4479 107.078 74.3807 107.078 79.2321C107.078 84.0835 110.989 88.0163 115.814 88.0163Z" fill="url(#paint0_radial_93_449)"/>
<path d="M115.813 81.7544C117.198 81.7544 118.321 80.6251 118.321 79.2322C118.321 77.8392 117.198 76.71 115.813 76.71C114.428 76.71 113.305 77.8392 113.305 79.2322C113.305 80.6251 114.428 81.7544 115.813 81.7544Z" fill="#6EE8FC"/>
<path d="M30.4443 130.372C30.4443 131.763 29.3199 132.894 27.936 132.894C26.5521 132.894 25.4277 131.763 25.4277 130.372C25.4277 128.98 26.5521 127.85 27.936 127.85C29.3199 127.85 30.4443 128.98 30.4443 130.372Z" fill="#328BF2"/>
<path d="M218.567 180.381C219.952 180.381 221.075 179.252 221.075 177.859C221.075 176.466 219.952 175.337 218.567 175.337C217.182 175.337 216.059 176.466 216.059 177.859C216.059 179.252 217.182 180.381 218.567 180.381Z" fill="#328BF2"/>
<path d="M234.741 170.814C236.126 170.814 237.249 169.685 237.249 168.292C237.249 166.899 236.126 165.77 234.741 165.77C233.355 165.77 232.232 166.899 232.232 168.292C232.232 169.685 233.355 170.814 234.741 170.814Z" fill="#328BF2"/>
<path d="M253.337 158.899C253.337 160.291 252.212 161.421 250.829 161.421C249.445 161.421 248.32 160.291 248.32 158.899C248.32 157.507 249.445 156.377 250.829 156.377C252.212 156.377 253.337 157.507 253.337 158.899Z" fill="#328BF2"/>
<path opacity="0.5" d="M138.65 127.589L102.41 106.541C99.6419 104.976 99.9878 102.193 103.188 100.279L137.872 80.1018C141.072 78.2754 145.829 78.0145 148.597 79.6669L184.837 100.714C187.605 102.28 187.259 105.063 184.059 106.976L149.375 127.154C146.175 128.98 141.418 129.154 138.65 127.589Z" fill="#0E75C9"/>
<path d="M191.323 82.1021V74.5355H171.949L149.115 61.2287C146.088 59.4893 140.725 59.6632 137.179 61.7505L115.21 74.5355H95.8353V82.537C95.7488 83.7546 96.4408 84.8853 97.9112 85.755L138.044 109.064C141.071 110.803 146.434 110.629 149.98 108.542L188.383 86.1898C190.459 85.0592 191.41 83.4937 191.323 82.1021Z" fill="#312A91"/>
<path opacity="0.5" d="M191.323 82.1021V74.5355H171.949L149.115 61.2287C146.088 59.4893 140.725 59.6632 137.179 61.7505L115.21 74.5355H95.8353V82.537C95.7488 83.7546 96.4408 84.8853 97.9112 85.755L138.044 109.064C141.071 110.803 146.434 110.629 149.98 108.542L188.383 86.1898C190.459 85.0592 191.41 83.4937 191.323 82.1021Z" fill="url(#paint1_linear_93_449)"/>
<path d="M149.116 61.3156C147.645 60.4459 145.656 60.098 143.58 60.098V110.194C145.829 110.107 148.164 109.585 149.981 108.542L188.383 86.1898C190.373 84.9722 191.411 83.4937 191.324 82.1021V74.5355H171.95L149.116 61.3156Z" fill="url(#paint2_linear_93_449)"/>
<path d="M138.13 101.062L97.9968 77.7535C94.9696 76.014 95.3156 72.883 98.8618 70.8827L137.265 48.5307C140.811 46.4434 146.087 46.2694 149.201 48.0089L189.333 71.3175C192.361 73.057 192.015 76.188 188.468 78.1884L150.066 100.54C146.519 102.628 141.157 102.802 138.13 101.062Z" fill="#312A91"/>
<path opacity="0.5" d="M138.13 101.062L97.9968 77.7535C94.9696 76.014 95.3156 72.883 98.8618 70.8827L137.265 48.5307C140.811 46.4434 146.087 46.2694 149.201 48.0089L189.333 71.3175C192.361 73.057 192.015 76.188 188.468 78.1884L150.066 100.54C146.519 102.628 141.157 102.802 138.13 101.062Z" fill="url(#paint3_linear_93_449)"/>
<path d="M139.169 95.9307L106.821 77.1446C104.399 75.7531 104.658 73.2309 107.512 71.5784L138.477 53.5751C141.331 51.9226 145.569 51.7486 148.078 53.1402L180.426 71.9263C182.848 73.3178 182.588 75.84 179.734 77.4925L148.77 95.4959C145.915 97.1483 141.591 97.3223 139.169 95.9307Z" fill="#5CFFF3"/>
<path d="M107.512 74.0136L138.476 56.0103C141.33 54.3578 145.569 54.1839 148.077 55.5754L180.425 74.3615C181.031 74.7094 181.463 75.1443 181.723 75.5791C182.415 74.2745 181.982 72.883 180.425 71.9263L148.077 53.1402C145.655 51.7486 141.33 51.9226 138.476 53.5751L107.512 71.5784C105.349 72.796 104.657 74.5355 105.522 75.927C105.868 75.2312 106.56 74.5355 107.512 74.0136Z" fill="#42E8E0"/>
<path opacity="0.5" d="M139.427 101.062L99.2942 77.7535C96.267 76.014 95.4885 73.4048 100.159 70.8826L138.562 48.5307C140.292 47.487 142.454 46.9652 144.616 46.8782C142.108 46.7912 139.34 47.313 137.265 48.5307L98.8618 70.8826C95.3156 72.97 94.9696 76.014 97.9968 77.7535L138.13 101.062C139.686 101.932 141.849 102.367 144.011 102.28C142.281 102.193 140.638 101.758 139.427 101.062Z" fill="url(#paint4_linear_93_449)"/>
<path opacity="0.5" d="M188.469 81.5803L150.066 103.932C146.52 106.02 141.244 106.194 138.13 104.454L97.9971 81.1454C96.5267 80.2757 95.8348 79.145 95.9213 77.9274V79.5799C95.8348 80.7975 96.5267 81.9282 97.9971 82.7979L138.13 106.107C141.157 107.846 146.52 107.672 150.066 105.585L188.469 83.2327C190.458 82.0151 191.496 80.5366 191.409 79.145V77.4926C191.409 78.8841 190.458 80.4496 188.469 81.5803Z" fill="url(#paint5_linear_93_449)"/>
<path d="M181.463 79.406C181.896 79.6669 181.896 80.1018 181.463 80.3627C181.031 80.6236 180.339 80.6236 179.906 80.3627C179.474 80.1018 179.474 79.6669 179.906 79.406C180.339 79.1451 181.031 79.1451 181.463 79.406Z" fill="#FCCC6B"/>
<path d="M183.971 78.0144C184.404 78.2753 184.404 78.7102 183.971 78.9711C183.539 79.232 182.847 79.232 182.414 78.9711C181.982 78.7102 181.982 78.2753 182.414 78.0144C182.76 77.7535 183.539 77.7535 183.971 78.0144Z" fill="#FCCC6B"/>
<path d="M186.393 76.5359C186.825 76.7968 186.825 77.2317 186.393 77.4926C185.96 77.7535 185.269 77.7535 184.836 77.4926C184.404 77.2317 184.404 76.7968 184.836 76.5359C185.269 76.275 185.96 76.275 186.393 76.5359Z" fill="#FCCC6B"/>
<path opacity="0.5" d="M72.74 165.857L36.4995 144.809C33.7317 143.244 34.0777 140.461 37.2779 138.547L71.9616 118.37C75.1618 116.543 79.9189 116.282 82.6867 117.935L118.927 138.982C121.695 140.548 121.349 143.331 118.149 145.244L83.4651 165.422C80.2649 167.248 75.5078 167.509 72.74 165.857Z" fill="#0E75C9"/>
<path d="M125.415 120.37V112.803H106.04L83.2062 99.4967C80.1789 97.7572 74.8164 97.9312 71.2702 100.018L49.301 112.89H30.0131V120.892C29.9266 122.11 30.6185 123.24 32.0889 124.11L72.2216 147.419C75.2489 149.158 80.6114 148.984 84.1576 146.897L122.56 124.545C124.55 123.327 125.588 121.849 125.415 120.37Z" fill="#312A91"/>
<path opacity="0.5" d="M125.415 120.37V112.803H106.04L83.2062 99.4967C80.1789 97.7572 74.8164 97.9312 71.2702 100.018L49.301 112.89H30.0131V120.892C29.9266 122.11 30.6185 123.24 32.0889 124.11L72.2216 147.419C75.2489 149.158 80.6114 148.984 84.1576 146.897L122.56 124.545C124.55 123.327 125.588 121.849 125.415 120.37Z" fill="url(#paint6_linear_93_449)"/>
<path d="M83.2074 99.5837C81.737 98.714 79.7477 98.3661 77.6719 98.3661V148.462C79.9207 148.375 82.256 147.854 84.0723 146.81L122.475 124.458C124.465 123.24 125.502 121.762 125.416 120.37V112.804H106.042L83.2074 99.5837Z" fill="url(#paint7_linear_93_449)"/>
<path d="M72.2213 139.417L32.0886 116.108C29.0614 114.369 29.4074 111.238 32.9536 109.238L71.3564 86.8857C74.9026 84.7983 80.1787 84.6244 83.2924 86.3638L123.425 109.673C126.452 111.412 126.106 114.543 122.56 116.543L84.1574 138.895C80.6112 140.896 75.2486 141.157 72.2213 139.417Z" fill="#312A91"/>
<path opacity="0.5" d="M72.2213 139.417L32.0886 116.108C29.0614 114.369 29.4074 111.238 32.9536 109.238L71.3564 86.8857C74.9026 84.7983 80.1787 84.6244 83.2924 86.3638L123.425 109.673C126.452 111.412 126.106 114.543 122.56 116.543L84.1574 138.895C80.6112 140.896 75.2486 141.157 72.2213 139.417Z" fill="url(#paint8_linear_93_449)"/>
<path d="M73.2606 134.199L40.9123 115.413C38.4905 114.021 38.75 111.499 41.6042 109.846L72.5687 91.8431C75.423 90.1907 79.6611 90.0167 82.1694 91.4083L114.518 110.194C116.94 111.586 116.68 114.108 113.826 115.761L82.8614 133.764C80.0071 135.503 75.7689 135.677 73.2606 134.199Z" fill="#5CFFF3"/>
<path d="M41.6036 112.282L72.568 94.2783C75.4223 92.6258 79.6604 92.4519 82.1687 93.8434L114.517 112.63C115.123 112.977 115.555 113.412 115.814 113.847C116.506 112.543 116.074 111.151 114.517 110.194L82.1687 91.4952C79.7469 90.1036 75.4223 90.2776 72.568 91.93L41.6036 109.933C39.4412 111.151 38.7493 112.89 39.6142 114.282C39.9602 113.499 40.6521 112.89 41.6036 112.282Z" fill="#42E8E0"/>
<path opacity="0.5" d="M73.5193 139.417L33.3866 116.108C30.3593 114.369 29.5809 111.76 34.2515 109.238L72.6544 86.8856C74.3842 85.842 76.5465 85.3201 78.7089 85.2332C76.2006 85.1462 73.4328 85.668 71.357 86.8856L32.8676 109.151C29.3214 111.238 28.9754 114.282 32.0027 116.021L72.1354 139.33C73.6923 140.2 75.8546 140.635 78.0169 140.548C76.3735 140.461 74.8167 140.113 73.5193 139.417Z" fill="url(#paint9_linear_93_449)"/>
<path opacity="0.5" d="M122.56 119.935L84.1576 142.287C80.6114 144.375 75.3353 144.549 72.2216 142.809L32.0889 119.5C30.6185 118.631 29.9266 117.5 30.0131 116.282V117.935C29.9266 119.153 30.6185 120.283 32.0889 121.153L72.2216 144.375C75.2489 146.114 80.6114 145.94 84.1576 143.853L122.56 121.501C124.55 120.283 125.588 118.805 125.501 117.413V115.761C125.588 117.239 124.55 118.718 122.56 119.935Z" fill="url(#paint10_linear_93_449)"/>
<path d="M115.555 117.761C115.988 118.022 115.988 118.457 115.555 118.718C115.123 118.979 114.431 118.979 113.998 118.718C113.566 118.457 113.566 118.022 113.998 117.761C114.431 117.5 115.123 117.5 115.555 117.761Z" fill="#FCCC6B"/>
<path d="M118.063 116.282C118.495 116.543 118.495 116.978 118.063 117.239C117.63 117.5 116.938 117.5 116.506 117.239C116.074 116.978 116.074 116.543 116.506 116.282C116.852 116.021 117.63 116.021 118.063 116.282Z" fill="#FCCC6B"/>
<path d="M120.485 114.891C120.917 115.152 120.917 115.587 120.485 115.848C120.052 116.108 119.36 116.108 118.928 115.848C118.495 115.587 118.495 115.152 118.928 114.891C119.36 114.63 120.052 114.63 120.485 114.891Z" fill="#FCCC6B"/>
<path opacity="0.5" d="M204.556 165.509L168.316 144.462C165.548 142.896 165.894 140.113 169.094 138.199L203.778 118.022C206.978 116.195 211.735 115.934 214.503 117.587L250.744 138.634C253.511 140.2 253.165 142.983 249.965 144.896L215.282 165.074C212.081 166.9 207.324 167.161 204.556 165.509Z" fill="#0E75C9"/>
<path d="M257.23 120.109V112.543H237.855L215.021 99.2358C211.994 97.4963 206.631 97.6703 203.085 99.7576L181.116 112.543H161.742V120.544C161.655 121.762 162.347 122.892 163.817 123.762L203.95 147.071C206.977 148.81 212.34 148.636 215.886 146.549L254.289 124.197C256.365 123.066 257.316 121.501 257.23 120.109Z" fill="#312A91"/>
<path opacity="0.5" d="M257.23 120.109V112.543H237.855L215.021 99.2358C211.994 97.4963 206.631 97.6703 203.085 99.7576L181.116 112.543H161.742V120.544C161.655 121.762 162.347 122.892 163.817 123.762L203.95 147.071C206.977 148.81 212.34 148.636 215.886 146.549L254.289 124.197C256.365 123.066 257.316 121.501 257.23 120.109Z" fill="url(#paint11_linear_93_449)"/>
<path d="M215.022 99.2358C213.552 98.3661 211.562 98.0182 209.486 98.0182V148.114C211.735 148.027 214.07 147.506 215.887 146.462L254.29 124.11C256.279 122.892 257.317 121.414 257.23 120.022V112.456H237.856L215.022 99.2358Z" fill="url(#paint12_linear_93_449)"/>
<path d="M204.036 139.069L163.903 115.761C160.876 114.021 161.222 110.89 164.768 108.89L203.171 86.5378C206.717 84.4504 211.993 84.2765 215.107 86.0159L255.24 109.325C258.267 111.064 257.921 114.195 254.375 116.195L215.972 138.547C212.339 140.635 207.063 140.809 204.036 139.069Z" fill="#312A91"/>
<path opacity="0.5" d="M204.036 139.069L163.903 115.761C160.876 114.021 161.222 110.89 164.768 108.89L203.171 86.5378C206.717 84.4504 211.993 84.2765 215.107 86.0159L255.24 109.325C258.267 111.064 257.921 114.195 254.375 116.195L215.972 138.547C212.339 140.635 207.063 140.809 204.036 139.069Z" fill="url(#paint13_linear_93_449)"/>
<path d="M205.075 133.938L172.727 115.152C170.305 113.76 170.564 111.238 173.419 109.585L204.383 91.5821C207.237 89.9297 211.476 89.7557 213.984 91.1473L246.332 109.933C248.754 111.325 248.495 113.847 245.64 115.5L214.676 133.503C211.822 135.155 207.497 135.329 205.075 133.938Z" fill="#5CFFF3"/>
<path d="M173.418 112.021L204.382 94.0174C207.237 92.3649 211.475 92.1909 213.983 93.5825L246.332 112.369C246.937 112.716 247.369 113.151 247.629 113.586C248.321 112.282 247.888 110.89 246.332 109.933L213.983 91.1473C211.561 89.7557 207.237 89.9297 204.382 91.5821L173.418 109.585C171.256 110.803 170.564 112.543 171.429 113.934C171.775 113.238 172.467 112.543 173.418 112.021Z" fill="#42E8E0"/>
<path opacity="0.5" d="M205.333 139.069L165.2 115.761C162.173 114.021 161.395 111.412 166.065 108.89L204.468 86.5377C206.198 85.4941 208.36 84.9722 210.523 84.8853C208.014 84.7983 205.247 85.3201 203.171 86.5377L164.768 108.89C161.222 110.977 160.876 114.021 163.903 115.761L204.036 139.069C205.593 139.939 207.755 140.374 209.917 140.287C208.187 140.113 206.544 139.765 205.333 139.069Z" fill="url(#paint14_linear_93_449)"/>
<path opacity="0.5" d="M254.375 119.587L215.973 141.939C212.426 144.027 207.15 144.201 204.037 142.461L163.817 119.152C162.347 118.283 161.655 117.152 161.742 115.934V117.587C161.655 118.805 162.347 119.935 163.817 120.805L203.95 144.114C206.977 145.853 212.34 145.679 215.886 143.592L254.289 121.24C256.278 120.022 257.316 118.544 257.23 117.152V115.5C257.316 116.891 256.365 118.457 254.375 119.587Z" fill="url(#paint15_linear_93_449)"/>
<path d="M247.37 117.413C247.802 117.674 247.802 118.109 247.37 118.37C246.937 118.631 246.245 118.631 245.813 118.37C245.38 118.109 245.38 117.674 245.813 117.413C246.245 117.152 246.937 117.152 247.37 117.413Z" fill="#FCCC6B"/>
<path d="M249.877 115.935C250.31 116.195 250.31 116.63 249.877 116.891C249.445 117.152 248.753 117.152 248.32 116.891C247.888 116.63 247.888 116.195 248.32 115.935C248.666 115.761 249.358 115.761 249.877 115.935Z" fill="#FCCC6B"/>
<path d="M252.299 114.543C252.732 114.804 252.732 115.239 252.299 115.5C251.867 115.761 251.175 115.761 250.742 115.5C250.31 115.239 250.31 114.804 250.742 114.543C251.175 114.282 251.867 114.282 252.299 114.543Z" fill="#FCCC6B"/>
<path opacity="0.5" d="M140.119 91.4083L114.777 76.7099C112.874 75.5792 113.134 73.6658 115.296 72.3613L139.6 58.2717C141.849 56.9671 145.222 56.8801 147.125 57.9238L172.468 72.6222C174.371 73.7528 174.111 75.6662 171.949 76.9708L147.644 91.0604C145.395 92.365 142.022 92.4519 140.119 91.4083Z" fill="#0B0244"/>
<path opacity="0.5" d="M191.323 74.5355C191.323 74.3616 191.323 74.2746 191.323 74.1006V53.0533L158.024 53.2272L149.115 48.0089C146.088 46.2694 140.725 46.4434 137.179 48.5307L128.876 53.3142L95.8353 53.4881V74.5355C95.7488 75.7531 96.4408 76.8838 97.9112 77.7535L138.044 101.062C141.071 102.802 146.434 102.628 149.98 100.54L188.469 78.2753C190.286 77.1447 191.237 75.8401 191.323 74.5355Z" fill="#328BF2"/>
<path d="M191.323 53.0533V45.4867H171.949L149.115 32.1799C146.088 30.4404 140.725 30.6144 137.179 32.7017L115.21 45.4867H95.8353V53.4882C95.7488 54.7058 96.4408 55.8364 97.9112 56.7062L138.13 80.0148C141.158 81.7543 146.52 81.5803 150.066 79.493L188.469 57.141C190.459 56.0104 191.41 54.5318 191.323 53.0533Z" fill="#312A91"/>
<path opacity="0.5" d="M191.323 53.0533V45.4867H171.949L149.115 32.1799C146.088 30.4404 140.725 30.6144 137.179 32.7017L115.21 45.4867H95.8353V53.4882C95.7488 54.7058 96.4408 55.8364 97.9112 56.7062L138.13 80.0148C141.158 81.7543 146.52 81.5803 150.066 79.493L188.469 57.141C190.459 56.0104 191.41 54.5318 191.323 53.0533Z" fill="url(#paint16_linear_93_449)"/>
<path d="M149.116 32.2668C147.645 31.3971 145.656 31.0492 143.58 31.0492V81.1454C145.829 81.0585 148.164 80.5366 149.981 79.4929L188.383 57.141C190.373 55.9234 191.411 54.4448 191.324 53.0533V45.4866H171.95L149.116 32.2668Z" fill="url(#paint17_linear_93_449)"/>
<path d="M138.13 72.0133L97.9968 48.7047C94.9696 46.9652 95.3156 43.8342 98.8618 41.8338L137.265 19.4819C140.811 17.3945 146.087 17.2206 149.201 18.96L189.333 42.2687C192.361 44.0081 192.015 47.1392 188.468 49.1395L150.066 71.4915C146.519 73.5788 141.157 73.8398 138.13 72.0133Z" fill="#312A91"/>
<path opacity="0.5" d="M138.13 72.0133L97.9968 48.7047C94.9696 46.9652 95.3156 43.8342 98.8618 41.8338L137.265 19.4819C140.811 17.3945 146.087 17.2206 149.201 18.96L189.333 42.2687C192.361 44.0081 192.015 47.1392 188.468 49.1395L150.066 71.4915C146.519 73.5788 141.157 73.8398 138.13 72.0133Z" fill="url(#paint18_linear_93_449)"/>
<path opacity="0.5" d="M139.427 72.0133L99.2942 48.7046C96.267 46.9652 95.4885 44.356 100.159 41.8338L138.562 19.4818C140.292 18.4382 142.454 17.9163 144.616 17.8294C142.108 17.7424 139.34 18.2642 137.265 19.4818L98.8618 41.8338C95.3156 43.9211 94.9696 46.9652 97.9968 48.7046L138.13 72.0133C139.686 72.883 141.849 73.3179 144.011 73.2309C142.281 73.1439 140.638 72.796 139.427 72.0133Z" fill="url(#paint19_linear_93_449)"/>
<path opacity="0.5" d="M188.469 52.6185L150.066 74.9704C146.52 77.0578 141.244 77.2317 138.13 75.4923L97.9971 52.1836C96.5267 51.3139 95.8348 50.1832 95.9213 48.9656V50.6181C95.8348 51.8357 96.5267 52.9664 97.9971 53.8361L138.13 77.1448C141.157 78.8842 146.52 78.7103 150.066 76.6229L188.469 54.271C190.458 53.0533 191.496 51.5748 191.409 50.1832V48.5308C191.409 49.9223 190.458 51.4009 188.469 52.6185Z" fill="url(#paint20_linear_93_449)"/>
<path opacity="0.5" d="M74.2112 129.676L48.8687 114.978C46.9659 113.847 47.2254 111.934 49.3877 110.629L73.6922 96.5396C75.941 95.2351 79.3143 95.1481 81.2171 96.1917L106.56 110.89C108.462 112.021 108.203 113.934 106.041 115.239L81.7361 129.328C79.4872 130.633 76.2005 130.807 74.2112 129.676Z" fill="#0B0244"/>
<path opacity="0.5" d="M125.415 112.89C125.415 112.717 125.415 112.63 125.415 112.456V91.4083L92.1155 91.5822L83.2068 86.3638C80.1795 84.6244 74.817 84.7983 71.2707 86.8857L62.9674 91.6692L29.9271 91.8431V112.89C29.8406 114.108 30.5326 115.239 32.003 116.108L72.1357 139.417C75.1629 141.157 80.5255 140.983 84.0717 138.895L122.475 116.543C124.377 115.5 125.329 114.195 125.415 112.89Z" fill="#328BF2"/>
<path d="M125.415 91.4082V83.8416H106.04L83.2062 70.6218C80.1789 68.8823 74.8164 69.0563 71.2702 71.1436L49.301 83.8416H30.0131V91.8431C29.9266 93.0607 30.6185 94.1914 32.0889 95.0611L72.2216 118.283C75.2489 120.022 80.6114 119.848 84.1576 117.761L122.56 95.409C124.55 94.3653 125.588 92.7998 125.415 91.4082Z" fill="#312A91"/>
<path opacity="0.5" d="M125.415 91.4082V83.8416H106.04L83.2062 70.6218C80.1789 68.8823 74.8164 69.0563 71.2702 71.1436L49.301 83.8416H30.0131V91.8431C29.9266 93.0607 30.6185 94.1914 32.0889 95.0611L72.2216 118.283C75.2489 120.022 80.6114 119.848 84.1576 117.761L122.56 95.409C124.55 94.3653 125.588 92.7998 125.415 91.4082Z" fill="url(#paint21_linear_93_449)"/>
<path d="M83.2074 70.6218C81.737 69.7521 79.7477 69.4042 77.6719 69.4042V119.5C79.9207 119.413 82.256 118.892 84.0723 117.848L122.475 95.496C124.465 94.2783 125.502 92.7998 125.416 91.4082V83.8416H106.042L83.2074 70.6218Z" fill="url(#paint22_linear_93_449)"/>
<path d="M72.2213 110.368L32.0886 87.0596C29.0614 85.3202 29.4074 82.1892 32.9536 80.1888L71.3564 57.8369C74.9026 55.7495 80.1787 55.5756 83.2924 57.315L123.425 80.6237C126.452 82.3631 126.106 85.4941 122.56 87.4945L84.1574 109.846C80.6112 111.934 75.2486 112.108 72.2213 110.368Z" fill="#312A91"/>
<path opacity="0.5" d="M72.2213 110.368L32.0886 87.0596C29.0614 85.3202 29.4074 82.1892 32.9536 80.1888L71.3564 57.8369C74.9026 55.7495 80.1787 55.5756 83.2924 57.315L123.425 80.6237C126.452 82.3631 126.106 85.4941 122.56 87.4945L84.1574 109.846C80.6112 111.934 75.2486 112.108 72.2213 110.368Z" fill="url(#paint23_linear_93_449)"/>
<path d="M73.2606 105.237L40.9123 86.4508C38.4905 85.0592 38.75 82.537 41.6042 80.8845L72.5687 62.8812C75.423 61.2287 79.6611 61.0548 82.1694 62.4464L114.518 81.2324C116.94 82.624 116.68 85.1462 113.826 86.7987L82.8614 104.802C80.0071 106.454 75.7689 106.628 73.2606 105.237Z" fill="#328BF2"/>
<path d="M41.6036 83.3198L72.568 65.3164C75.4223 63.664 79.6604 63.49 82.1687 64.8816L114.517 83.6677C115.123 84.0155 115.555 84.4504 115.814 84.8853C116.506 83.5807 116.074 82.1891 114.517 81.2324L82.1687 62.4464C79.7469 61.0548 75.4223 61.2287 72.568 62.8812L41.6036 80.8845C39.4412 82.1022 38.7493 83.8416 39.6142 85.2332C39.9602 84.5374 40.6521 83.8416 41.6036 83.3198Z" fill="#2D79C4"/>
<path opacity="0.5" d="M73.5193 110.368L33.3866 87.0596C30.3593 85.3202 29.5809 82.711 34.2515 80.1888L72.6544 57.8368C74.3842 56.7931 76.5465 56.2713 78.7089 56.1843C76.2006 56.0974 73.4328 56.6192 71.357 57.8368L32.8676 80.1888C29.3214 82.2761 28.9754 85.3202 32.0027 87.0596L72.1354 110.368C73.6923 111.238 75.8546 111.673 78.0169 111.586C76.3735 111.499 74.8167 111.064 73.5193 110.368Z" fill="url(#paint24_linear_93_449)"/>
<path opacity="0.5" d="M122.56 90.8864L84.1576 113.238C80.6114 115.326 75.3353 115.5 72.2216 113.76L32.0889 90.4516C30.6185 89.5818 29.9266 88.4512 30.0131 87.2336V88.886C29.9266 90.1037 30.6185 91.2343 32.0889 92.104L72.2216 115.413C75.2489 117.152 80.6114 116.978 84.1576 114.891L122.56 92.5389C124.55 91.3213 125.588 89.8427 125.501 88.4512V86.7987C125.588 88.1903 124.55 89.7558 122.56 90.8864Z" fill="url(#paint25_linear_93_449)"/>
<path d="M115.555 88.7122C115.988 88.9731 115.988 89.4079 115.555 89.6689C115.123 89.9298 114.431 89.9298 113.998 89.6689C113.566 89.4079 113.566 88.9731 113.998 88.7122C114.431 88.4513 115.123 88.4513 115.555 88.7122Z" fill="#328BF2"/>
<path d="M118.063 87.3206C118.495 87.5815 118.495 88.0163 118.063 88.2773C117.63 88.5382 116.938 88.5382 116.506 88.2773C116.074 88.0163 116.074 87.5815 116.506 87.3206C116.852 87.0596 117.63 87.0596 118.063 87.3206Z" fill="#328BF2"/>
<path d="M120.485 85.842C120.917 86.103 120.917 86.5378 120.485 86.7987C120.052 87.0597 119.36 87.0597 118.928 86.7987C118.495 86.5378 118.495 86.103 118.928 85.842C119.36 85.5811 120.052 85.5811 120.485 85.842Z" fill="#328BF2"/>
<path opacity="0.5" d="M206.026 129.328L180.683 114.63C178.78 113.499 179.04 111.586 181.202 110.281L205.507 96.1917C207.755 94.8872 211.129 94.8002 213.032 95.8438L238.374 110.542C240.277 111.673 240.017 113.586 237.855 114.891L213.55 128.98C211.302 130.372 207.928 130.459 206.026 129.328Z" fill="#0B0244"/>
<path opacity="0.5" d="M257.23 112.543C257.23 112.369 257.23 112.282 257.23 112.108V91.0604L223.93 91.2343L215.021 86.0159C211.994 84.2765 206.631 84.4504 203.085 86.5378L194.782 91.3213L161.742 91.4952V112.543C161.655 113.76 162.347 114.891 163.817 115.761L203.95 139.069C206.977 140.809 212.34 140.635 215.886 138.547L254.289 116.195C256.192 115.239 257.143 113.847 257.23 112.543Z" fill="#328BF2"/>
<path d="M257.23 91.0604V83.4938H237.855L215.021 70.187C211.994 68.4475 206.631 68.6215 203.085 70.7088L181.116 83.4938H161.742V91.4953C161.655 92.7129 162.347 93.8435 163.817 94.7132L203.95 118.022C206.977 119.761 212.34 119.587 215.886 117.5L254.289 95.1481C256.365 94.0175 257.316 92.452 257.23 91.0604Z" fill="#312A91"/>
<path opacity="0.5" d="M257.23 91.0604V83.4938H237.855L215.021 70.187C211.994 68.4475 206.631 68.6215 203.085 70.7088L181.116 83.4938H161.742V91.4953C161.655 92.7129 162.347 93.8435 163.817 94.7132L203.95 118.022C206.977 119.761 212.34 119.587 215.886 117.5L254.289 95.1481C256.365 94.0175 257.316 92.452 257.23 91.0604Z" fill="url(#paint26_linear_93_449)"/>
<path d="M215.022 70.2739C213.552 69.4042 211.562 69.0563 209.486 69.0563V119.152C211.735 119.066 214.07 118.544 215.887 117.5L254.29 95.1481C256.279 93.9304 257.317 92.4519 257.23 91.0603V83.4937H237.856L215.022 70.2739Z" fill="url(#paint27_linear_93_449)"/>
<path d="M204.036 110.02L163.903 86.7117C160.876 84.9723 161.222 81.8413 164.768 79.8409L203.171 57.489C206.717 55.4016 211.993 55.2277 215.107 56.9671L255.153 80.3628C258.18 82.1022 257.834 85.2332 254.288 87.2336L215.885 109.586C212.339 111.586 207.063 111.847 204.036 110.02Z" fill="#312A91"/>
<path opacity="0.5" d="M204.036 110.02L163.903 86.7117C160.876 84.9723 161.222 81.8413 164.768 79.8409L203.171 57.489C206.717 55.4016 211.993 55.2277 215.107 56.9671L255.153 80.3628C258.18 82.1022 257.834 85.2332 254.288 87.2336L215.885 109.586C212.339 111.586 207.063 111.847 204.036 110.02Z" fill="url(#paint28_linear_93_449)"/>
<path opacity="0.5" d="M205.333 110.02L165.2 86.7117C162.173 84.9723 161.395 82.3631 166.065 79.8409L204.468 57.4889C206.198 56.4452 208.36 55.9234 210.523 55.8364C208.014 55.7495 205.247 56.2713 203.171 57.4889L164.768 79.8409C161.222 81.9282 160.876 84.9723 163.903 86.7117L204.036 110.02C205.593 110.89 207.755 111.325 209.917 111.238C208.187 111.151 206.544 110.716 205.333 110.02Z" fill="url(#paint29_linear_93_449)"/>
<path opacity="0.5" d="M254.375 90.6256L215.972 112.977C212.426 115.065 207.15 115.239 204.036 113.499L163.903 90.1907C162.433 89.321 161.741 88.1903 161.828 86.9727V88.6252C161.741 89.8428 162.433 90.9734 163.903 91.8432L204.036 115.152C207.063 116.891 212.426 116.717 215.972 114.63L254.375 92.278C256.364 91.0604 257.402 89.5819 257.316 88.1903V86.5378C257.316 87.9294 256.364 89.4079 254.375 90.6256Z" fill="url(#paint30_linear_93_449)"/>
<path opacity="0.5" d="M138.65 203.864L102.41 182.816C99.6419 181.251 99.9878 178.468 103.188 176.554L137.872 156.377C141.072 154.55 145.829 154.289 148.597 155.942L184.837 176.989C187.605 178.555 187.259 181.338 184.059 183.251L149.375 203.429C146.175 205.255 141.418 205.429 138.65 203.864Z" fill="#0E75C9"/>
<path d="M191.323 158.377V150.811H171.949L149.115 137.504C146.088 135.764 140.725 135.938 137.179 138.026L115.21 150.811H95.8353V158.812C95.7488 160.03 96.4408 161.16 97.9112 162.03L138.044 185.339C141.071 187.078 146.434 186.904 149.98 184.817L188.383 162.465C190.459 161.334 191.41 159.769 191.323 158.377Z" fill="#312A91"/>
<path opacity="0.5" d="M191.323 158.377V150.811H171.949L149.115 137.504C146.088 135.764 140.725 135.938 137.179 138.026L115.21 150.811H95.8353V158.812C95.7488 160.03 96.4408 161.16 97.9112 162.03L138.044 185.339C141.071 187.078 146.434 186.904 149.98 184.817L188.383 162.465C190.459 161.334 191.41 159.769 191.323 158.377Z" fill="url(#paint31_linear_93_449)"/>
<path d="M149.116 137.591C147.645 136.721 145.656 136.373 143.58 136.373V186.469C145.829 186.382 148.164 185.86 149.981 184.817L188.383 162.465C190.373 161.247 191.411 159.769 191.324 158.377V150.81H171.95L149.116 137.591Z" fill="url(#paint32_linear_93_449)"/>
<path d="M138.13 177.337L97.9968 154.029C94.9696 152.289 95.3156 149.158 98.8618 147.158L137.265 124.806C140.811 122.718 146.087 122.544 149.201 124.284L189.333 147.593C192.361 149.332 192.015 152.463 188.468 154.463L150.066 176.815C146.519 178.903 141.157 179.164 138.13 177.337Z" fill="#312A91"/>
<path opacity="0.5" d="M138.13 177.337L97.9968 154.029C94.9696 152.289 95.3156 149.158 98.8618 147.158L137.265 124.806C140.811 122.718 146.087 122.544 149.201 124.284L189.333 147.593C192.361 149.332 192.015 152.463 188.468 154.463L150.066 176.815C146.519 178.903 141.157 179.164 138.13 177.337Z" fill="url(#paint33_linear_93_449)"/>
<path d="M139.169 172.206L106.821 153.42C104.399 152.028 104.658 149.506 107.512 147.854L138.477 129.85C141.331 128.198 145.569 128.024 148.078 129.415L180.426 148.201C182.848 149.593 182.588 152.115 179.734 153.768L148.77 171.771C145.915 173.423 141.591 173.597 139.169 172.206Z" fill="#5CFFF3"/>
<path d="M107.512 150.289L138.476 132.285C141.33 130.633 145.569 130.459 148.077 131.851L180.425 150.637C181.031 150.985 181.463 151.419 181.723 151.854C182.415 150.55 181.982 149.158 180.425 148.201L148.077 129.415C145.655 128.024 141.33 128.198 138.476 129.85L107.512 147.854C105.349 149.071 104.657 150.811 105.522 152.202C105.868 151.506 106.56 150.898 107.512 150.289Z" fill="#42E8E0"/>
<path opacity="0.5" d="M139.427 177.337L99.2942 154.028C96.267 152.289 95.4885 149.68 100.159 147.158L138.562 124.806C140.292 123.762 142.454 123.24 144.616 123.153C142.108 123.066 139.34 123.588 137.265 124.806L98.8618 147.158C95.3156 149.245 94.9696 152.289 97.9968 154.028L138.13 177.337C139.686 178.207 141.849 178.642 144.011 178.555C142.281 178.468 140.638 178.033 139.427 177.337Z" fill="url(#paint34_linear_93_449)"/>
<path opacity="0.5" d="M188.469 157.942L150.066 180.294C146.52 182.382 141.244 182.555 138.13 180.816L97.9971 157.42C96.5267 156.551 95.8348 155.42 95.9213 154.202V155.855C95.8348 157.073 96.5267 158.203 97.9971 159.073L138.13 182.382C141.157 184.121 146.52 183.947 150.066 181.86L188.469 159.508C190.458 158.29 191.496 156.812 191.409 155.42V153.768C191.409 155.246 190.458 156.725 188.469 157.942Z" fill="url(#paint35_linear_93_449)"/>
<path d="M181.463 155.681C181.896 155.942 181.896 156.377 181.463 156.638C181.031 156.899 180.339 156.899 179.906 156.638C179.474 156.377 179.474 155.942 179.906 155.681C180.339 155.507 181.031 155.507 181.463 155.681Z" fill="#FCCC6B"/>
<path d="M183.971 154.289C184.404 154.55 184.404 154.985 183.971 155.246C183.539 155.507 182.847 155.507 182.414 155.246C181.982 154.985 181.982 154.55 182.414 154.289C182.76 154.029 183.539 154.029 183.971 154.289Z" fill="#FCCC6B"/>
<path d="M186.393 152.811C186.825 153.072 186.825 153.507 186.393 153.768C185.96 154.029 185.269 154.029 184.836 153.768C184.404 153.507 184.404 153.072 184.836 152.811C185.269 152.637 185.96 152.637 186.393 152.811Z" fill="#FCCC6B"/>
<path opacity="0.5" d="M140.119 167.683L114.777 152.985C112.874 151.854 113.134 149.941 115.296 148.636L139.6 134.547C141.849 133.242 145.222 133.155 147.125 134.199L172.468 148.897C174.371 150.028 174.111 151.941 171.949 153.246L147.644 167.335C145.395 168.64 142.022 168.814 140.119 167.683Z" fill="#0B0244"/>
<path opacity="0.5" d="M191.323 150.811C191.323 150.637 191.323 150.55 191.323 150.376V129.328L158.024 129.502L149.115 124.284C146.088 122.544 140.725 122.718 137.179 124.806L128.876 129.589L95.8353 129.763V150.811C95.7488 152.028 96.4408 153.159 97.9112 154.029L138.044 177.337C141.071 179.077 146.434 178.903 149.98 176.815L188.383 154.463C190.286 153.507 191.237 152.115 191.323 150.811Z" fill="#328BF2"/>
<path d="M191.323 129.328V121.762H171.949L149.115 108.455C146.088 106.715 140.725 106.889 137.179 108.977L115.21 121.762H95.8353V129.763C95.7488 130.981 96.4408 132.111 97.9112 132.981L138.044 156.29C141.071 158.029 146.434 157.855 149.98 155.768L188.383 133.416C190.459 132.285 191.41 130.807 191.323 129.328Z" fill="#312A91"/>
<path opacity="0.5" d="M191.323 129.328V121.762H171.949L149.115 108.455C146.088 106.715 140.725 106.889 137.179 108.977L115.21 121.762H95.8353V129.763C95.7488 130.981 96.4408 132.111 97.9112 132.981L138.044 156.29C141.071 158.029 146.434 157.855 149.98 155.768L188.383 133.416C190.459 132.285 191.41 130.807 191.323 129.328Z" fill="url(#paint36_linear_93_449)"/>
<path d="M149.116 108.542C147.645 107.672 145.656 107.324 143.58 107.324V157.42C145.829 157.333 148.164 156.812 149.981 155.768L188.383 133.416C190.373 132.198 191.411 130.72 191.324 129.328V121.762H171.95L149.116 108.542Z" fill="url(#paint37_linear_93_449)"/>
<path d="M138.13 148.375L97.9968 125.067C94.9696 123.327 95.3156 120.196 98.8618 118.196L137.265 95.8438C140.811 93.7565 146.087 93.5825 149.201 95.322L189.333 118.631C192.361 120.37 192.015 123.501 188.468 125.501L149.979 147.853C146.519 149.941 141.157 150.115 138.13 148.375Z" fill="#312A91"/>
<path opacity="0.5" d="M138.13 148.375L97.9968 125.067C94.9696 123.327 95.3156 120.196 98.8618 118.196L137.265 95.8438C140.811 93.7565 146.087 93.5825 149.201 95.322L189.333 118.631C192.361 120.37 192.015 123.501 188.468 125.501L149.979 147.853C146.519 149.941 141.157 150.115 138.13 148.375Z" fill="url(#paint38_linear_93_449)"/>
<path opacity="0.5" d="M139.427 148.375L99.2942 125.067C96.267 123.327 95.4885 120.718 100.159 118.196L138.562 95.8438C140.292 94.8001 142.454 94.2783 144.616 94.1913C142.108 94.1043 139.34 94.6262 137.265 95.8438L98.8618 118.196C95.3156 120.283 94.9696 123.327 97.9968 125.067L138.13 148.375C139.686 149.245 141.849 149.68 144.011 149.593C142.281 149.419 140.638 149.071 139.427 148.375Z" fill="url(#paint39_linear_93_449)"/>
<path opacity="0.5" d="M188.469 128.893L150.066 151.245C146.52 153.333 141.244 153.507 138.13 151.767L97.9971 128.459C96.5267 127.589 95.8348 126.458 95.9213 125.241V126.893C95.8348 128.111 96.5267 129.241 97.9971 130.111L138.13 153.42C141.157 155.159 146.52 154.985 150.066 152.898L188.469 130.546C190.458 129.328 191.496 127.85 191.409 126.458V124.806C191.409 126.197 190.458 127.763 188.469 128.893Z" fill="url(#paint40_linear_93_449)"/>
<path opacity="0.2" d="M140.465 123.501C141.33 124.023 141.33 124.806 140.465 125.241C139.6 125.675 138.303 125.762 137.438 125.241C136.573 124.719 136.573 123.936 137.438 123.501C138.216 123.066 139.6 123.066 140.465 123.501Z" fill="#328BF2"/>
<path opacity="0.6" d="M145.135 120.805C146 121.327 146 122.11 145.135 122.544C144.27 123.066 142.973 123.066 142.108 122.544C141.243 122.023 141.243 121.24 142.108 120.805C142.973 120.283 144.27 120.283 145.135 120.805Z" fill="#328BF2"/>
<path d="M149.807 118.022C150.672 118.544 150.672 119.326 149.807 119.761C148.942 120.196 147.644 120.283 146.78 119.761C145.915 119.239 145.915 118.457 146.78 118.022C147.644 117.587 149.028 117.587 149.807 118.022Z" fill="#328BF2"/>
<path opacity="0.5" d="M143.32 142.635C141.85 142.635 140.38 142.374 139.342 141.678L109.675 124.458C108.637 123.849 108.031 122.979 108.031 121.936C108.031 120.805 108.896 119.674 110.367 118.805L138.823 102.28C141.504 100.714 145.569 100.54 147.904 101.932L177.572 119.152C178.609 119.761 179.215 120.631 179.215 121.675C179.215 122.805 178.35 123.936 176.88 124.806L148.423 141.33C147.04 142.2 145.137 142.635 143.32 142.635ZM139.688 141.157C141.85 142.374 145.656 142.287 148.164 140.809L176.62 124.284C177.918 123.588 178.609 122.544 178.609 121.675C178.609 120.892 178.09 120.196 177.226 119.761L147.559 102.541C145.396 101.323 141.59 101.41 139.082 102.889L110.626 119.413C109.329 120.109 108.637 121.153 108.637 122.023C108.637 122.805 109.156 123.501 110.021 123.936L139.688 141.157Z" fill="#0B0244"/>
<path opacity="0.5" d="M209.227 104.628C207.756 104.628 206.286 104.367 205.248 103.671L175.581 86.4508C174.543 85.842 173.938 84.9723 173.938 83.9286C173.938 82.798 174.802 81.6673 176.273 80.7976L204.729 64.2728C207.41 62.7073 211.475 62.5333 213.811 63.9249L243.478 81.1455C244.516 81.7543 245.121 82.624 245.121 83.6677C245.121 84.7983 244.256 85.929 242.786 86.7987L214.33 103.323C212.946 104.193 211.043 104.628 209.227 104.628ZM205.594 103.15C207.756 104.367 211.562 104.28 214.07 102.802L242.526 86.2769C243.824 85.5811 244.516 84.5374 244.516 83.6677C244.516 82.8849 243.997 82.1891 243.132 81.7543L213.465 64.5337C211.302 63.3161 207.497 63.4031 204.988 64.8816L176.532 81.4064C175.235 82.1891 174.543 83.1458 174.543 84.0156C174.543 84.7983 175.062 85.4941 175.927 85.929L205.594 103.15Z" fill="#0B0244"/>
<path opacity="0.5" d="M143.405 66.4471C141.935 66.4471 140.465 66.0992 139.34 65.4904L109.673 48.2698C108.549 47.661 107.943 46.7043 107.943 45.6607C107.943 44.443 108.808 43.2254 110.279 42.3557L138.735 25.8309C141.416 24.2654 145.568 24.0914 147.99 25.483L177.657 42.7036C178.781 43.3124 179.386 44.2691 179.386 45.3128C179.386 46.5304 178.522 47.748 177.051 48.6177L148.595 65.1425C147.038 66.0122 145.135 66.4471 143.405 66.4471ZM139.773 64.7946C141.935 66.0122 145.654 65.8383 148.163 64.4467L176.619 47.9219C177.83 47.2262 178.522 46.2695 178.522 45.3997C178.522 44.704 178.089 44.0082 177.224 43.5733L147.557 26.3527C145.395 25.1351 141.676 25.3091 139.167 26.7006L110.711 43.2254C109.5 43.9212 108.808 44.8779 108.808 45.7476C108.808 46.4434 109.241 47.1392 110.106 47.5741L139.773 64.7946Z" fill="#0B0244"/>
<path d="M100.506 87.0596L73.6934 71.4915L75.5962 70.3608L102.409 85.9289L100.506 87.0596Z" fill="#60AAF4"/>
<path d="M96.3538 89.4948L69.541 73.9267L71.4439 72.796L98.2567 88.3641L96.3538 89.4948Z" fill="#60AAF4"/>
<path d="M92.2034 91.843L65.3906 76.2749L67.38 75.1443L94.1928 90.7124L92.2034 91.843Z" fill="#60AAF4"/>
<path d="M88.137 94.2783L61.3242 78.7102L63.2271 77.5796L90.0398 93.1477L88.137 94.2783Z" fill="#60AAF4"/>
<path d="M83.9866 96.6266L57.1738 81.0585L59.0767 79.9279L85.8895 95.496L83.9866 96.6266Z" fill="#60AAF4"/>
<path d="M79.8343 99.0618L53.0215 83.4937L55.0108 82.363L81.8236 97.9311L79.8343 99.0618Z" fill="#60AAF4"/>
<path opacity="0.2" d="M206.373 85.4071C207.238 85.929 207.238 86.7117 206.373 87.1466C205.508 87.6684 204.211 87.6684 203.346 87.1466C202.481 86.6247 202.481 85.842 203.346 85.4071C204.124 84.8853 205.508 84.8853 206.373 85.4071Z" fill="#328BF2"/>
<path opacity="0.6" d="M211.043 82.624C211.908 83.1458 211.908 83.9286 211.043 84.3634C210.178 84.8853 208.881 84.8853 208.016 84.3634C207.151 83.8416 207.151 83.0589 208.016 82.624C208.881 82.1891 210.178 82.1891 211.043 82.624Z" fill="#328BF2"/>
<path d="M215.715 79.9279C216.58 80.4497 216.58 81.2325 215.715 81.6673C214.85 82.1892 213.553 82.1892 212.688 81.6673C211.823 81.1455 211.823 80.3627 212.688 79.9279C213.553 79.406 214.937 79.406 215.715 79.9279Z" fill="#328BF2"/>
<path opacity="0.2" d="M140.465 47.4C141.33 47.9219 141.33 48.7046 140.465 49.1395C139.6 49.6613 138.303 49.6613 137.438 49.1395C136.573 48.6176 136.573 47.8349 137.438 47.4C138.303 46.9652 139.6 46.8782 140.465 47.4Z" fill="#328BF2"/>
<path opacity="0.6" d="M145.135 44.7039C146 45.2257 146 46.0085 145.135 46.4433C144.27 46.9652 142.973 46.9652 142.108 46.4433C141.243 45.9215 141.243 45.1387 142.108 44.7039C142.973 44.182 144.27 44.182 145.135 44.7039Z" fill="#328BF2"/>
<path d="M149.807 41.9208C150.672 42.4426 150.672 43.2253 149.807 43.6602C148.942 44.182 147.644 44.182 146.78 43.6602C145.915 43.1384 145.915 42.3556 146.78 41.9208C147.644 41.4859 149.028 41.4859 149.807 41.9208Z" fill="#328BF2"/>
<path d="M209.14 106.367C207.497 106.367 205.94 106.02 204.729 105.324L153.525 75.6662C152.401 74.9704 151.709 74.0137 151.709 72.97C151.709 71.7524 152.66 70.4478 154.217 69.5781L204.037 40.7032C207.064 38.9637 211.562 38.7898 214.157 40.2683L265.361 70.0129C266.485 70.7087 267.177 71.6654 267.177 72.7091C267.177 73.9267 266.226 75.2313 264.669 76.101L214.849 104.976C213.205 105.933 211.13 106.367 209.14 106.367ZM209.746 39.5725C207.843 39.5725 205.767 40.0074 204.21 40.9641L154.39 69.839C152.92 70.7087 152.055 71.8394 152.055 72.97C152.055 73.9267 152.66 74.7095 153.698 75.3183L204.902 105.063C207.41 106.541 211.822 106.367 214.762 104.628L264.582 75.7531C266.053 74.8834 266.918 73.7528 266.918 72.6221C266.918 71.6654 266.312 70.8827 265.274 70.2739L214.07 40.5292C212.859 39.8334 211.303 39.5725 209.746 39.5725Z" fill="#328BF2"/>
<path d="M198.501 45.0518C198.501 46.0085 197.722 46.7913 196.771 46.7913C195.819 46.7913 195.041 46.0085 195.041 45.0518C195.041 44.0951 195.819 43.3124 196.771 43.3124C197.722 43.3124 198.501 44.0951 198.501 45.0518Z" fill="#328BF2"/>
<path d="M159.493 67.7517C159.493 68.7084 158.714 69.4911 157.763 69.4911C156.812 69.4911 156.033 68.7084 156.033 67.7517C156.033 66.795 156.812 66.0122 157.763 66.0122C158.714 66.0122 159.493 66.708 159.493 67.7517Z" fill="#328BF2"/>
<path d="M240.018 91.2342C240.018 92.1909 239.24 92.9737 238.288 92.9737C237.337 92.9737 236.559 92.1909 236.559 91.2342C236.559 90.2775 237.337 89.4948 238.288 89.4948C239.24 89.4948 240.018 90.2775 240.018 91.2342Z" fill="#328BF2"/>
<path d="M251.262 84.5373C251.262 85.494 250.484 86.2768 249.533 86.2768C248.581 86.2768 247.803 85.494 247.803 84.5373C247.803 83.5806 248.581 82.7979 249.533 82.7979C250.484 82.7979 251.262 83.5806 251.262 84.5373Z" fill="#328BF2"/>
<path d="M262.507 77.9274C262.507 78.8841 261.728 79.6669 260.777 79.6669C259.825 79.6669 259.047 78.8841 259.047 77.9274C259.047 76.9707 259.825 76.188 260.777 76.188C261.728 76.188 262.507 76.9707 262.507 77.9274Z" fill="#328BF2"/>
<defs>
<radialGradient id="paint0_radial_93_449" cx="0" cy="0" r="1" gradientUnits="userSpaceOnUse" gradientTransform="translate(115.777 79.2591) scale(8.70948 8.75779)">
<stop stop-color="#42E8E0"/>
<stop offset="0.0225145" stop-color="#3FD8D7"/>
<stop offset="0.098265" stop-color="#36A9BA"/>
<stop offset="0.1786" stop-color="#2E7FA0"/>
<stop offset="0.2622" stop-color="#275C8B"/>
<stop offset="0.35" stop-color="#223F79"/>
<stop offset="0.4433" stop-color="#1D296C"/>
<stop offset="0.5449" stop-color="#1A1962"/>
<stop offset="0.6608" stop-color="#19105D"/>
<stop offset="0.8226" stop-color="#180D5B"/>
</radialGradient>
<linearGradient id="paint1_linear_93_449" x1="74.7981" y1="85.1544" x2="170.248" y2="85.1544" gradientUnits="userSpaceOnUse">
<stop stop-color="#42E8E0"/>
<stop offset="0.1022" stop-color="#3CCACE"/>
<stop offset="0.3445" stop-color="#2F87A5"/>
<stop offset="0.564" stop-color="#255385"/>
<stop offset="0.7534" stop-color="#1E2D6E"/>
<stop offset="0.905" stop-color="#1A1660"/>
<stop offset="1" stop-color="#180D5B"/>
</linearGradient>
<linearGradient id="paint2_linear_93_449" x1="143.622" y1="85.1522" x2="191.347" y2="85.1522" gradientUnits="userSpaceOnUse">
<stop stop-color="#2B237C"/>
<stop offset="1" stop-color="#180D5B"/>
</linearGradient>
<linearGradient id="paint3_linear_93_449" x1="95.8959" y1="74.5514" x2="191.352" y2="74.5514" gradientUnits="userSpaceOnUse">
<stop stop-color="#42E8E0"/>
<stop offset="0.1022" stop-color="#3CCACE"/>
<stop offset="0.3445" stop-color="#2F87A5"/>
<stop offset="0.564" stop-color="#255385"/>
<stop offset="0.7534" stop-color="#1E2D6E"/>
<stop offset="0.905" stop-color="#1A1660"/>
<stop offset="1" stop-color="#180D5B"/>
</linearGradient>
<linearGradient id="paint4_linear_93_449" x1="95.8958" y1="74.5529" x2="144.615" y2="74.5529" gradientUnits="userSpaceOnUse">
<stop stop-color="#42E8E0"/>
<stop offset="0.1022" stop-color="#3CCACE"/>
<stop offset="0.3445" stop-color="#2F87A5"/>
<stop offset="0.564" stop-color="#255385"/>
<stop offset="0.7534" stop-color="#1E2D6E"/>
<stop offset="0.905" stop-color="#1A1660"/>
<stop offset="1" stop-color="#180D5B"/>
</linearGradient>
<linearGradient id="paint5_linear_93_449" x1="108.879" y1="102.481" x2="189.04" y2="50.3753" gradientUnits="userSpaceOnUse">
<stop stop-color="#42E8E0"/>
<stop offset="0.1022" stop-color="#3CCACE"/>
<stop offset="0.3445" stop-color="#2F87A5"/>
<stop offset="0.564" stop-color="#255385"/>
<stop offset="0.7534" stop-color="#1E2D6E"/>
<stop offset="0.905" stop-color="#1A1660"/>
<stop offset="1" stop-color="#180D5B"/>
</linearGradient>
<linearGradient id="paint6_linear_93_449" x1="8.89669" y1="123.464" x2="104.346" y2="123.464" gradientUnits="userSpaceOnUse">
<stop stop-color="#42E8E0"/>
<stop offset="0.1022" stop-color="#3CCACE"/>
<stop offset="0.3445" stop-color="#2F87A5"/>
<stop offset="0.564" stop-color="#255385"/>
<stop offset="0.7534" stop-color="#1E2D6E"/>
<stop offset="0.905" stop-color="#1A1660"/>
<stop offset="1" stop-color="#180D5B"/>
</linearGradient>
<linearGradient id="paint7_linear_93_449" x1="77.7213" y1="123.462" x2="125.446" y2="123.462" gradientUnits="userSpaceOnUse">
<stop stop-color="#2B237C"/>
<stop offset="1" stop-color="#180D5B"/>
</linearGradient>
<linearGradient id="paint8_linear_93_449" x1="29.9951" y1="112.861" x2="125.452" y2="112.861" gradientUnits="userSpaceOnUse">
<stop stop-color="#42E8E0"/>
<stop offset="0.1022" stop-color="#3CCACE"/>
<stop offset="0.3445" stop-color="#2F87A5"/>
<stop offset="0.564" stop-color="#255385"/>
<stop offset="0.7534" stop-color="#1E2D6E"/>
<stop offset="0.905" stop-color="#1A1660"/>
<stop offset="1" stop-color="#180D5B"/>
</linearGradient>
<linearGradient id="paint9_linear_93_449" x1="29.9955" y1="112.863" x2="78.7145" y2="112.863" gradientUnits="userSpaceOnUse">
<stop stop-color="#42E8E0"/>
<stop offset="0.1022" stop-color="#3CCACE"/>
<stop offset="0.3445" stop-color="#2F87A5"/>
<stop offset="0.564" stop-color="#255385"/>
<stop offset="0.7534" stop-color="#1E2D6E"/>
<stop offset="0.905" stop-color="#1A1660"/>
<stop offset="1" stop-color="#180D5B"/>
</linearGradient>
<linearGradient id="paint10_linear_93_449" x1="42.9783" y1="140.791" x2="123.139" y2="88.685" gradientUnits="userSpaceOnUse">
<stop stop-color="#42E8E0"/>
<stop offset="0.1022" stop-color="#3CCACE"/>
<stop offset="0.3445" stop-color="#2F87A5"/>
<stop offset="0.564" stop-color="#255385"/>
<stop offset="0.7534" stop-color="#1E2D6E"/>
<stop offset="0.905" stop-color="#1A1660"/>
<stop offset="1" stop-color="#180D5B"/>
</linearGradient>
<linearGradient id="paint11_linear_93_449" x1="140.697" y1="123.141" x2="236.147" y2="123.141" gradientUnits="userSpaceOnUse">
<stop stop-color="#42E8E0"/>
<stop offset="0.1022" stop-color="#3CCACE"/>
<stop offset="0.3445" stop-color="#2F87A5"/>
<stop offset="0.564" stop-color="#255385"/>
<stop offset="0.7534" stop-color="#1E2D6E"/>
<stop offset="0.905" stop-color="#1A1660"/>
<stop offset="1" stop-color="#180D5B"/>
</linearGradient>
<linearGradient id="paint12_linear_93_449" x1="209.521" y1="123.138" x2="257.246" y2="123.138" gradientUnits="userSpaceOnUse">
<stop stop-color="#2B237C"/>
<stop offset="1" stop-color="#180D5B"/>
</linearGradient>
<linearGradient id="paint13_linear_93_449" x1="161.795" y1="112.538" x2="257.251" y2="112.538" gradientUnits="userSpaceOnUse">
<stop stop-color="#42E8E0"/>
<stop offset="0.1022" stop-color="#3CCACE"/>
<stop offset="0.3445" stop-color="#2F87A5"/>
<stop offset="0.564" stop-color="#255385"/>
<stop offset="0.7534" stop-color="#1E2D6E"/>
<stop offset="0.905" stop-color="#1A1660"/>
<stop offset="1" stop-color="#180D5B"/>
</linearGradient>
<linearGradient id="paint14_linear_93_449" x1="161.795" y1="112.539" x2="210.514" y2="112.539" gradientUnits="userSpaceOnUse">
<stop stop-color="#42E8E0"/>
<stop offset="0.1022" stop-color="#3CCACE"/>
<stop offset="0.3445" stop-color="#2F87A5"/>
<stop offset="0.564" stop-color="#255385"/>
<stop offset="0.7534" stop-color="#1E2D6E"/>
<stop offset="0.905" stop-color="#1A1660"/>
<stop offset="1" stop-color="#180D5B"/>
</linearGradient>
<linearGradient id="paint15_linear_93_449" x1="174.779" y1="140.468" x2="254.94" y2="88.3616" gradientUnits="userSpaceOnUse">
<stop stop-color="#42E8E0"/>
<stop offset="0.1022" stop-color="#3CCACE"/>
<stop offset="0.3445" stop-color="#2F87A5"/>
<stop offset="0.564" stop-color="#255385"/>
<stop offset="0.7534" stop-color="#1E2D6E"/>
<stop offset="0.905" stop-color="#1A1660"/>
<stop offset="1" stop-color="#180D5B"/>
</linearGradient>
<linearGradient id="paint16_linear_93_449" x1="74.7981" y1="56.143" x2="170.248" y2="56.143" gradientUnits="userSpaceOnUse">
<stop stop-color="#42E8E0"/>
<stop offset="0.1022" stop-color="#3CCACE"/>
<stop offset="0.3445" stop-color="#2F87A5"/>
<stop offset="0.564" stop-color="#255385"/>
<stop offset="0.7534" stop-color="#1E2D6E"/>
<stop offset="0.905" stop-color="#1A1660"/>
<stop offset="1" stop-color="#180D5B"/>
</linearGradient>
<linearGradient id="paint17_linear_93_449" x1="143.622" y1="56.1408" x2="191.347" y2="56.1408" gradientUnits="userSpaceOnUse">
<stop stop-color="#2B237C"/>
<stop offset="1" stop-color="#180D5B"/>
</linearGradient>
<linearGradient id="paint18_linear_93_449" x1="95.8959" y1="45.5401" x2="191.352" y2="45.5401" gradientUnits="userSpaceOnUse">
<stop stop-color="#42E8E0"/>
<stop offset="0.1022" stop-color="#3CCACE"/>
<stop offset="0.3445" stop-color="#2F87A5"/>
<stop offset="0.564" stop-color="#255385"/>
<stop offset="0.7534" stop-color="#1E2D6E"/>
<stop offset="0.905" stop-color="#1A1660"/>
<stop offset="1" stop-color="#180D5B"/>
</linearGradient>
<linearGradient id="paint19_linear_93_449" x1="95.8958" y1="45.5414" x2="144.615" y2="45.5414" gradientUnits="userSpaceOnUse">
<stop stop-color="#42E8E0"/>
<stop offset="0.1022" stop-color="#3CCACE"/>
<stop offset="0.3445" stop-color="#2F87A5"/>
<stop offset="0.564" stop-color="#255385"/>
<stop offset="0.7534" stop-color="#1E2D6E"/>
<stop offset="0.905" stop-color="#1A1660"/>
<stop offset="1" stop-color="#180D5B"/>
</linearGradient>
<linearGradient id="paint20_linear_93_449" x1="108.879" y1="73.4701" x2="189.04" y2="21.3639" gradientUnits="userSpaceOnUse">
<stop stop-color="#42E8E0"/>
<stop offset="0.1022" stop-color="#3CCACE"/>
<stop offset="0.3445" stop-color="#2F87A5"/>
<stop offset="0.564" stop-color="#255385"/>
<stop offset="0.7534" stop-color="#1E2D6E"/>
<stop offset="0.905" stop-color="#1A1660"/>
<stop offset="1" stop-color="#180D5B"/>
</linearGradient>
<linearGradient id="paint21_linear_93_449" x1="8.89669" y1="94.4526" x2="104.346" y2="94.4526" gradientUnits="userSpaceOnUse">
<stop stop-color="#42E8E0"/>
<stop offset="0.1022" stop-color="#3CCACE"/>
<stop offset="0.3445" stop-color="#2F87A5"/>
<stop offset="0.564" stop-color="#255385"/>
<stop offset="0.7534" stop-color="#1E2D6E"/>
<stop offset="0.905" stop-color="#1A1660"/>
<stop offset="1" stop-color="#180D5B"/>
</linearGradient>
<linearGradient id="paint22_linear_93_449" x1="77.7213" y1="94.4505" x2="125.446" y2="94.4505" gradientUnits="userSpaceOnUse">
<stop stop-color="#2B237C"/>
<stop offset="1" stop-color="#180D5B"/>
</linearGradient>
<linearGradient id="paint23_linear_93_449" x1="29.9951" y1="83.8497" x2="125.452" y2="83.8497" gradientUnits="userSpaceOnUse">
<stop stop-color="#42E8E0"/>
<stop offset="0.1022" stop-color="#3CCACE"/>
<stop offset="0.3445" stop-color="#2F87A5"/>
<stop offset="0.564" stop-color="#255385"/>
<stop offset="0.7534" stop-color="#1E2D6E"/>
<stop offset="0.905" stop-color="#1A1660"/>
<stop offset="1" stop-color="#180D5B"/>
</linearGradient>
<linearGradient id="paint24_linear_93_449" x1="29.9955" y1="83.8511" x2="78.7145" y2="83.8511" gradientUnits="userSpaceOnUse">
<stop stop-color="#42E8E0"/>
<stop offset="0.1022" stop-color="#3CCACE"/>
<stop offset="0.3445" stop-color="#2F87A5"/>
<stop offset="0.564" stop-color="#255385"/>
<stop offset="0.7534" stop-color="#1E2D6E"/>
<stop offset="0.905" stop-color="#1A1660"/>
<stop offset="1" stop-color="#180D5B"/>
</linearGradient>
<linearGradient id="paint25_linear_93_449" x1="42.9783" y1="111.78" x2="123.139" y2="59.6736" gradientUnits="userSpaceOnUse">
<stop stop-color="#42E8E0"/>
<stop offset="0.1022" stop-color="#3CCACE"/>
<stop offset="0.3445" stop-color="#2F87A5"/>
<stop offset="0.564" stop-color="#255385"/>
<stop offset="0.7534" stop-color="#1E2D6E"/>
<stop offset="0.905" stop-color="#1A1660"/>
<stop offset="1" stop-color="#180D5B"/>
</linearGradient>
<linearGradient id="paint26_linear_93_449" x1="140.697" y1="94.1293" x2="236.147" y2="94.1293" gradientUnits="userSpaceOnUse">
<stop stop-color="#42E8E0"/>
<stop offset="0.1022" stop-color="#3CCACE"/>
<stop offset="0.3445" stop-color="#2F87A5"/>
<stop offset="0.564" stop-color="#255385"/>
<stop offset="0.7534" stop-color="#1E2D6E"/>
<stop offset="0.905" stop-color="#1A1660"/>
<stop offset="1" stop-color="#180D5B"/>
</linearGradient>
<linearGradient id="paint27_linear_93_449" x1="209.521" y1="94.127" x2="257.246" y2="94.127" gradientUnits="userSpaceOnUse">
<stop stop-color="#2B237C"/>
<stop offset="1" stop-color="#180D5B"/>
</linearGradient>
<linearGradient id="paint28_linear_93_449" x1="161.795" y1="83.5263" x2="257.251" y2="83.5263" gradientUnits="userSpaceOnUse">
<stop stop-color="#42E8E0"/>
<stop offset="0.1022" stop-color="#3CCACE"/>
<stop offset="0.3445" stop-color="#2F87A5"/>
<stop offset="0.564" stop-color="#255385"/>
<stop offset="0.7534" stop-color="#1E2D6E"/>
<stop offset="0.905" stop-color="#1A1660"/>
<stop offset="1" stop-color="#180D5B"/>
</linearGradient>
<linearGradient id="paint29_linear_93_449" x1="161.795" y1="83.5277" x2="210.514" y2="83.5277" gradientUnits="userSpaceOnUse">
<stop stop-color="#42E8E0"/>
<stop offset="0.1022" stop-color="#3CCACE"/>
<stop offset="0.3445" stop-color="#2F87A5"/>
<stop offset="0.564" stop-color="#255385"/>
<stop offset="0.7534" stop-color="#1E2D6E"/>
<stop offset="0.905" stop-color="#1A1660"/>
<stop offset="1" stop-color="#180D5B"/>
</linearGradient>
<linearGradient id="paint30_linear_93_449" x1="174.778" y1="111.456" x2="254.939" y2="59.3501" gradientUnits="userSpaceOnUse">
<stop stop-color="#42E8E0"/>
<stop offset="0.1022" stop-color="#3CCACE"/>
<stop offset="0.3445" stop-color="#2F87A5"/>
<stop offset="0.564" stop-color="#255385"/>
<stop offset="0.7534" stop-color="#1E2D6E"/>
<stop offset="0.905" stop-color="#1A1660"/>
<stop offset="1" stop-color="#180D5B"/>
</linearGradient>
<linearGradient id="paint31_linear_93_449" x1="74.7981" y1="161.45" x2="170.248" y2="161.45" gradientUnits="userSpaceOnUse">
<stop stop-color="#42E8E0"/>
<stop offset="0.1022" stop-color="#3CCACE"/>
<stop offset="0.3445" stop-color="#2F87A5"/>
<stop offset="0.564" stop-color="#255385"/>
<stop offset="0.7534" stop-color="#1E2D6E"/>
<stop offset="0.905" stop-color="#1A1660"/>
<stop offset="1" stop-color="#180D5B"/>
</linearGradient>
<linearGradient id="paint32_linear_93_449" x1="143.622" y1="161.448" x2="191.347" y2="161.448" gradientUnits="userSpaceOnUse">
<stop stop-color="#2B237C"/>
<stop offset="1" stop-color="#180D5B"/>
</linearGradient>
<linearGradient id="paint33_linear_93_449" x1="95.8959" y1="150.847" x2="191.352" y2="150.847" gradientUnits="userSpaceOnUse">
<stop stop-color="#42E8E0"/>
<stop offset="0.1022" stop-color="#3CCACE"/>
<stop offset="0.3445" stop-color="#2F87A5"/>
<stop offset="0.564" stop-color="#255385"/>
<stop offset="0.7534" stop-color="#1E2D6E"/>
<stop offset="0.905" stop-color="#1A1660"/>
<stop offset="1" stop-color="#180D5B"/>
</linearGradient>
<linearGradient id="paint34_linear_93_449" x1="95.8958" y1="150.849" x2="144.615" y2="150.849" gradientUnits="userSpaceOnUse">
<stop stop-color="#42E8E0"/>
<stop offset="0.1022" stop-color="#3CCACE"/>
<stop offset="0.3445" stop-color="#2F87A5"/>
<stop offset="0.564" stop-color="#255385"/>
<stop offset="0.7534" stop-color="#1E2D6E"/>
<stop offset="0.905" stop-color="#1A1660"/>
<stop offset="1" stop-color="#180D5B"/>
</linearGradient>
<linearGradient id="paint35_linear_93_449" x1="108.879" y1="178.777" x2="189.04" y2="126.671" gradientUnits="userSpaceOnUse">
<stop stop-color="#42E8E0"/>
<stop offset="0.1022" stop-color="#3CCACE"/>
<stop offset="0.3445" stop-color="#2F87A5"/>
<stop offset="0.564" stop-color="#255385"/>
<stop offset="0.7534" stop-color="#1E2D6E"/>
<stop offset="0.905" stop-color="#1A1660"/>
<stop offset="1" stop-color="#180D5B"/>
</linearGradient>
<linearGradient id="paint36_linear_93_449" x1="74.7981" y1="132.439" x2="170.248" y2="132.439" gradientUnits="userSpaceOnUse">
<stop stop-color="#42E8E0"/>
<stop offset="0.1022" stop-color="#3CCACE"/>
<stop offset="0.3445" stop-color="#2F87A5"/>
<stop offset="0.564" stop-color="#255385"/>
<stop offset="0.7534" stop-color="#1E2D6E"/>
<stop offset="0.905" stop-color="#1A1660"/>
<stop offset="1" stop-color="#180D5B"/>
</linearGradient>
<linearGradient id="paint37_linear_93_449" x1="143.622" y1="132.437" x2="191.347" y2="132.437" gradientUnits="userSpaceOnUse">
<stop stop-color="#2B237C"/>
<stop offset="1" stop-color="#180D5B"/>
</linearGradient>
<linearGradient id="paint38_linear_93_449" x1="95.8959" y1="121.836" x2="191.352" y2="121.836" gradientUnits="userSpaceOnUse">
<stop stop-color="#42E8E0"/>
<stop offset="0.1022" stop-color="#3CCACE"/>
<stop offset="0.3445" stop-color="#2F87A5"/>
<stop offset="0.564" stop-color="#255385"/>
<stop offset="0.7534" stop-color="#1E2D6E"/>
<stop offset="0.905" stop-color="#1A1660"/>
<stop offset="1" stop-color="#180D5B"/>
</linearGradient>
<linearGradient id="paint39_linear_93_449" x1="95.8958" y1="121.837" x2="144.615" y2="121.837" gradientUnits="userSpaceOnUse">
<stop stop-color="#42E8E0"/>
<stop offset="0.1022" stop-color="#3CCACE"/>
<stop offset="0.3445" stop-color="#2F87A5"/>
<stop offset="0.564" stop-color="#255385"/>
<stop offset="0.7534" stop-color="#1E2D6E"/>
<stop offset="0.905" stop-color="#1A1660"/>
<stop offset="1" stop-color="#180D5B"/>
</linearGradient>
<linearGradient id="paint40_linear_93_449" x1="108.879" y1="149.766" x2="189.04" y2="97.6596" gradientUnits="userSpaceOnUse">
<stop stop-color="#42E8E0"/>
<stop offset="0.1022" stop-color="#3CCACE"/>
<stop offset="0.3445" stop-color="#2F87A5"/>
<stop offset="0.564" stop-color="#255385"/>
<stop offset="0.7534" stop-color="#1E2D6E"/>
<stop offset="0.905" stop-color="#1A1660"/>
<stop offset="1" stop-color="#180D5B"/>
</linearGradient>
</defs>
</svg>
