<svg width="35" height="35" viewBox="0 0 35 35" fill="none" xmlns="http://www.w3.org/2000/svg">
<g clip-path="url(#clip0_70_2857)">
<path d="M26.9673 14.4088C26.5134 14.5222 26.2865 15.0895 26.5134 15.5433C27.0807 16.9048 27.3076 18.3797 27.3076 19.8546C27.3076 26.6619 21.7483 32.1077 15.0545 32.1077C8.3607 32.1077 2.80143 26.6619 2.80143 19.8546C2.80143 13.0473 8.24725 7.60149 15.0545 7.60149C16.3025 7.60149 17.664 7.8284 18.912 8.16876C19.3658 8.28222 19.8196 8.05531 19.9331 7.60149C20.0465 7.14767 19.8196 6.69385 19.3658 6.5804C18.0043 6.12658 16.5294 5.89967 15.0545 5.89967C7.33961 5.89967 1.09961 12.1397 1.09961 19.8546C1.09961 27.5695 7.33961 33.8095 15.0545 33.8095C22.7694 33.8095 29.0094 27.5695 29.0094 19.8546C29.0094 18.1528 28.6691 16.451 28.1018 14.8626C27.9883 14.5222 27.4211 14.2953 26.9673 14.4088ZM15.0545 17.0182C15.5083 17.0182 15.9622 16.6779 15.9622 16.1106C15.9622 15.5433 15.6218 15.2029 15.0545 15.2029C12.5585 15.2029 10.5163 17.2451 10.5163 19.7411C10.5163 22.2371 12.5585 24.2793 15.0545 24.2793C17.5505 24.2793 19.5927 22.2371 19.5927 19.7411C19.5927 19.2873 19.2523 18.8335 18.6851 18.8335C18.1178 18.8335 17.8909 19.4008 17.8909 19.8546C17.8909 21.443 16.6429 22.691 15.0545 22.691C13.4662 22.691 12.2182 21.443 12.2182 19.8546C12.2182 18.2662 13.4662 17.0182 15.0545 17.0182ZM19.2523 12.5935C19.4793 12.1397 19.2523 11.6859 18.7985 11.4589C17.664 10.8917 16.3025 10.6648 15.0545 10.6648C9.94907 10.6648 5.75125 14.7491 5.75125 19.8546C5.75125 24.96 9.94907 29.1579 15.0545 29.1579C20.16 29.1579 24.3578 24.96 24.3578 19.8546C24.3578 18.4931 24.1309 17.2451 23.5636 16.1106C23.3367 15.6568 22.8829 15.4299 22.4291 15.6568C21.9753 15.8837 21.8618 16.3375 21.9753 16.7913C22.4291 17.8124 22.656 18.8335 22.656 19.8546C22.656 24.0524 19.2523 27.456 15.0545 27.456C10.8567 27.456 7.45307 24.0524 7.45307 19.8546C7.45307 15.6568 10.8567 12.2531 15.0545 12.2531C16.1891 12.2531 17.2102 12.48 18.1178 12.9339C18.5716 13.1608 19.0254 12.9339 19.2523 12.5935ZM34.6822 6.92076C34.5687 6.5804 34.3418 6.35349 34.0014 6.35349L29.3498 5.55931L28.5556 0.90767C28.5556 0.567307 28.3287 0.340397 27.9883 0.226943C27.648 0.113488 27.3076 0.226943 27.0807 0.453852L21.5214 6.01313C21.2945 6.24004 21.1811 6.46695 21.2945 6.80731L22.2022 11.5724L15.0545 18.72H14.9411C14.2603 18.72 13.6931 19.2873 13.6931 19.968C13.6931 20.6488 14.2603 21.216 14.9411 21.216C15.6218 21.216 16.1891 20.6488 16.1891 19.968L23.4502 12.7069L28.1018 13.6146H28.2153C28.4422 13.6146 28.6691 13.5011 28.7825 13.3877L34.3418 7.8284C34.6822 7.60149 34.7956 7.26113 34.6822 6.92076ZM23.1098 6.80731L27.1942 2.72294L27.7614 5.89967L23.7905 9.87058L23.1098 6.80731ZM28.1018 11.7993L25.0385 11.232L29.0094 7.26113L32.0727 7.8284L28.1018 11.7993Z" fill="#328BF2"/>
</g>
<defs>
<clipPath id="clip0_70_2857">
<rect width="34.0364" height="34.0364" fill="white" transform="translate(0.875)"/>
</clipPath>
</defs>
</svg>
