<svg width="70" height="70" viewBox="0 0 70 70" fill="none" xmlns="http://www.w3.org/2000/svg">
<path d="M43.6468 44.3147C46.6521 44.3147 49.0885 46.7509 49.0885 49.7564L49.085 52.7481C49.4479 59.5551 44.3865 63 35.3033 63C26.2577 63 21.1025 59.6111 21.1025 52.866V49.7564C21.1025 46.7509 23.5389 44.3147 26.5442 44.3147H43.6468ZM43.6468 48.9789H26.5442C26.115 48.9789 25.7669 49.3268 25.7669 49.7564V52.866C25.7669 56.5234 28.5241 58.3356 35.3033 58.3356C42.0445 58.3356 44.6185 56.5833 44.4241 52.8722V49.7564C44.4241 49.3268 44.0761 48.9789 43.6468 48.9789ZM9.44173 28.7668L23.0492 28.7672C22.7933 29.7611 22.6573 30.8028 22.6573 31.8764C22.6573 32.4021 22.69 32.9207 22.7532 33.4289L9.44173 33.4312C9.01239 33.4312 8.66433 33.7792 8.66433 34.2086V37.3182C8.66433 40.9756 11.4215 42.7878 18.2007 42.7878C19.637 42.7878 20.8842 42.7085 21.9556 42.5474C20.1982 43.6606 18.8807 45.3998 18.3077 47.4497L18.2007 47.4522C9.15521 47.4522 4 44.0634 4 37.3182V34.2086C4 31.2032 6.43633 28.7668 9.44173 28.7668ZM60.7494 28.7668C63.7547 28.7668 66.1911 31.2032 66.1911 34.2086L66.1876 37.2003C66.5505 44.0074 61.4891 47.4522 52.4057 47.4522L51.8825 47.4469C51.2934 45.3414 49.9187 43.5643 48.0943 42.4515C49.2969 42.6769 50.7282 42.7878 52.4057 42.7878C59.1469 42.7878 61.7211 41.0356 61.5267 37.3244V34.2086C61.5267 33.7792 61.1788 33.4312 60.7494 33.4312L47.4379 33.4287C47.5011 32.9203 47.5337 32.4021 47.5337 31.8764C47.5337 30.8028 47.3978 29.7611 47.1419 28.7672L60.7494 28.7668ZM35.0955 22.5478C40.2478 22.5478 44.4241 26.7243 44.4241 31.8764C44.4241 37.0286 40.2478 41.2051 35.0955 41.2051C29.9434 41.2051 25.7669 37.0286 25.7669 31.8764C25.7669 26.7243 29.9434 22.5478 35.0955 22.5478ZM35.0955 27.212C32.5195 27.212 30.4313 29.3005 30.4313 31.8764C30.4313 34.4524 32.5195 36.5407 35.0955 36.5407C37.6714 36.5407 39.7599 34.4524 39.7599 31.8764C39.7599 29.3005 37.6714 27.212 35.0955 27.212ZM17.9931 7C23.145 7 27.3217 11.1766 27.3217 16.3287C27.3217 21.4807 23.145 25.6572 17.9931 25.6572C12.8409 25.6572 8.66433 21.4807 8.66433 16.3287C8.66433 11.1766 12.8409 7 17.9931 7ZM52.1981 7C57.3502 7 61.5267 11.1766 61.5267 16.3287C61.5267 21.4807 57.3502 25.6572 52.1981 25.6572C47.0458 25.6572 42.8695 21.4807 42.8695 16.3287C42.8695 11.1766 47.0458 7 52.1981 7ZM17.9931 11.6643C15.4169 11.6643 13.3287 13.7526 13.3287 16.3287C13.3287 18.9048 15.4169 20.993 17.9931 20.993C20.569 20.993 22.6573 18.9048 22.6573 16.3287C22.6573 13.7526 20.569 11.6643 17.9931 11.6643ZM52.1981 11.6643C49.6221 11.6643 47.5337 13.7526 47.5337 16.3287C47.5337 18.9048 49.6221 20.993 52.1981 20.993C54.7741 20.993 56.8623 18.9048 56.8623 16.3287C56.8623 13.7526 54.7741 11.6643 52.1981 11.6643Z" fill="#328BF2"/>
</svg>
