<svg width="70" height="70" viewBox="0 0 70 70" fill="none" xmlns="http://www.w3.org/2000/svg">
<path d="M52.3227 30.5759C51.4748 30.7877 51.0509 31.8475 51.4748 32.6952C52.5345 35.2386 52.9584 37.9938 52.9584 40.749C52.9584 53.4655 42.5732 63.6387 30.0687 63.6387C17.5642 63.6387 7.17912 53.4655 7.17912 40.749C7.17912 28.0325 17.3523 17.8593 30.0687 17.8593C32.4001 17.8593 34.9435 18.2832 37.2748 18.919C38.1225 19.131 38.9703 18.7071 39.1823 17.8593C39.3941 17.0116 38.9703 16.1638 38.1225 15.9519C35.5792 15.1041 32.8239 14.6802 30.0687 14.6802C15.6568 14.6802 4 26.337 4 40.749C4 55.161 15.6568 66.8177 30.0687 66.8177C44.4807 66.8177 56.1375 55.161 56.1375 40.749C56.1375 37.5699 55.5018 34.3908 54.442 31.4236C54.23 30.7877 53.1704 30.3638 52.3227 30.5759ZM30.0687 35.4504C30.9165 35.4504 31.7644 34.8147 31.7644 33.7549C31.7644 32.6952 31.1285 32.0593 30.0687 32.0593C25.406 32.0593 21.591 35.8743 21.591 40.537C21.591 45.1997 25.406 49.0147 30.0687 49.0147C34.7314 49.0147 38.5464 45.1997 38.5464 40.537C38.5464 39.6892 37.9105 38.8415 36.8509 38.8415C35.7912 38.8415 35.3673 39.9013 35.3673 40.749C35.3673 43.7162 33.036 46.0476 30.0687 46.0476C27.1017 46.0476 24.7703 43.7162 24.7703 40.749C24.7703 37.7818 27.1017 35.4504 30.0687 35.4504ZM37.9105 27.1847C38.3346 26.337 37.9105 25.4893 37.0628 25.0652C34.9435 24.0057 32.4001 23.5818 30.0687 23.5818C20.5314 23.5818 12.6896 31.2116 12.6896 40.749C12.6896 50.2862 20.5314 58.1282 30.0687 58.1282C39.6062 58.1282 47.4479 50.2862 47.4479 40.749C47.4479 38.2056 47.0241 35.8743 45.9643 33.7549C45.5405 32.9072 44.6927 32.4833 43.845 32.9072C42.9973 33.3311 42.7852 34.1788 42.9973 35.0265C43.845 36.934 44.2689 38.8415 44.2689 40.749C44.2689 48.5908 37.9105 54.9489 30.0687 54.9489C22.2269 54.9489 15.8687 48.5908 15.8687 40.749C15.8687 32.9072 22.2269 26.5489 30.0687 26.5489C32.1882 26.5489 34.0957 26.9727 35.7912 27.8206C36.6389 28.2445 37.4866 27.8206 37.9105 27.1847ZM66.7347 16.5877C66.5226 15.9519 66.0988 15.528 65.4629 15.528L56.7734 14.0444L55.2897 5.35479C55.2897 4.71897 54.8659 4.29509 54.23 4.08315C53.5943 3.8712 52.9584 4.08315 52.5345 4.50703L42.1494 14.8922C41.7255 15.316 41.5136 15.7399 41.7255 16.3757L43.4211 25.2773L30.0687 38.6295H29.8569C28.5851 38.6295 27.5255 39.6892 27.5255 40.9608C27.5255 42.2326 28.5851 43.2922 29.8569 43.2922C31.1285 43.2922 32.1882 42.2326 32.1882 40.9608L45.7525 27.3966L54.442 29.0922H54.654C55.0779 29.0922 55.5018 28.8802 55.7136 28.6684L66.0988 18.2832C66.7347 17.8593 66.9465 17.2235 66.7347 16.5877ZM45.1166 16.3757L52.7465 8.74584L53.8061 14.6802L46.3882 22.0981L45.1166 16.3757ZM54.442 25.7011L48.7195 24.6414L56.1375 17.2235L61.8599 18.2832L54.442 25.7011Z" fill="#328BF2"/>
</svg>
