<svg width="70" height="70" viewBox="0 0 70 70" fill="none" xmlns="http://www.w3.org/2000/svg">
<path d="M40.6005 60.2795C38.186 60.9208 35.6972 61.245 33.1983 61.251C17.0942 61.3178 4 48.2129 4 32.1255C4 16.0398 17.0406 3 33.1255 3C49.2112 3 62.251 16.0398 62.251 32.1255C62.251 35.1615 61.7676 38.2197 60.8312 41.1087C64.4786 43.7814 66.6341 48.0044 66.6341 52.5431C66.6341 60.3661 60.2918 66.7085 52.4687 66.7085C47.6612 66.7085 43.2183 64.2872 40.6005 60.2795ZM52.4687 45.7417L54.1493 50.9485L59.6196 50.9377L55.1883 54.1447L56.8887 59.3445L52.4687 56.1201L48.0489 59.3445L49.7493 54.1447L45.317 50.9377L50.7884 50.9485L52.4687 45.7417ZM52.4687 41.5616C46.4443 41.5616 41.4872 46.4587 41.4872 52.5431C41.4872 58.6074 46.4044 63.524 52.4687 63.524C58.533 63.524 63.4496 58.6074 63.4496 52.5431C63.4496 46.4166 58.4725 41.5616 52.4687 41.5616ZM58.0082 39.5017C58.7209 37.0965 59.0673 34.6359 59.0673 32.1255C59.0673 29.4412 58.6595 26.8527 57.9025 24.4176H48.2987C48.6549 26.8736 48.8458 29.4581 48.8458 32.1255C48.8458 34.4059 48.6994 36.7033 48.4128 38.9661C49.6978 38.583 51.0596 38.3769 52.4687 38.3769C54.4343 38.3769 56.307 38.7776 58.0082 39.5017ZM41.9838 43.0182H34.7179V57.8488C36.216 57.4358 37.5171 56.4726 38.5854 55.37C38.4005 54.4566 38.3033 53.511 38.3033 52.5431C38.3033 48.8756 39.6972 45.5332 41.9838 43.0182ZM31.5331 43.0182H21.7739C22.9371 48.088 26.0512 56.3278 31.5331 57.8466V43.0182ZM34.7179 6.40458V21.2329H44.4773C43.3147 16.1632 40.2006 7.92336 34.7179 6.40458ZM34.7179 24.4176V39.8335H45.0871C45.4832 37.2765 45.6611 34.7132 45.6611 32.1255C45.6611 29.4404 45.4596 26.8527 45.0849 24.4176H34.7179ZM31.5331 39.8335V24.4176H21.167C20.7923 26.8527 20.5907 29.4404 20.5907 32.1255C20.5907 34.8107 20.7923 37.3984 21.167 39.8335H31.5331ZM31.5331 21.2329V6.40458C26.0512 7.92336 22.9371 16.1632 21.7739 21.2329H31.5331ZM17.9532 24.4176H8.34864C7.59231 26.8527 7.18465 29.4412 7.18465 32.1255C7.18465 34.8099 7.59231 37.3984 8.34864 39.8335H17.9532C17.5969 37.3783 17.4061 34.793 17.4061 32.1255C17.4061 29.4581 17.5969 26.8728 17.9532 24.4176ZM18.5225 43.0182H9.57545C12.5126 49.357 17.9156 54.281 24.5118 56.6021C21.39 52.855 19.5287 47.7239 18.5225 43.0182ZM18.5225 21.2329C19.5287 16.5279 21.39 11.3954 24.5118 7.64903C17.9164 9.97009 12.5118 14.8942 9.57545 21.2329H18.5225ZM41.74 7.64903C44.862 11.3961 46.7232 16.5279 47.7293 21.2329H56.6756C53.7393 14.8942 48.3354 9.97009 41.74 7.64903Z" fill="#328BF2"/>
</svg>
