<svg width="39" height="39" viewBox="0 0 39 39" fill="none" xmlns="http://www.w3.org/2000/svg">
<path d="M23.6622 24.0627C25.2126 24.0627 26.4695 25.3195 26.4695 26.87L26.4677 28.4134C26.6549 31.925 24.0438 33.7022 19.3579 33.7022C14.6914 33.7022 12.0319 31.9539 12.0319 28.4742V26.87C12.0319 25.3195 13.2888 24.0627 14.8392 24.0627H23.6622ZM23.6622 26.4689H14.8392C14.6178 26.4689 14.4382 26.6484 14.4382 26.87V28.4742C14.4382 30.361 15.8606 31.2959 19.3579 31.2959C22.8356 31.2959 24.1635 30.3919 24.0632 28.4774V26.87C24.0632 26.6484 23.8837 26.4689 23.6622 26.4689ZM6.01629 16.0418L13.0362 16.042C12.9042 16.5547 12.834 17.0921 12.834 17.646C12.834 17.9172 12.8509 18.1847 12.8835 18.4469L6.01629 18.4481C5.7948 18.4481 5.61524 18.6276 5.61524 18.8491V20.4533C5.61524 22.3401 7.03762 23.275 10.5349 23.275C11.2759 23.275 11.9193 23.2341 12.472 23.151C11.5654 23.7253 10.8857 24.6225 10.5901 25.68L10.5349 25.6813C5.86848 25.6813 3.20898 23.9331 3.20898 20.4533V18.8491C3.20898 17.2987 4.46585 16.0418 6.01629 16.0418ZM32.4852 16.0418C34.0356 16.0418 35.2925 17.2987 35.2925 18.8491L35.2907 20.3925C35.4779 23.9042 32.8668 25.6813 28.1808 25.6813L27.9109 25.6786C27.607 24.5924 26.8978 23.6756 25.9566 23.1015C26.577 23.2178 27.3154 23.275 28.1808 23.275C31.6585 23.275 32.9865 22.3711 32.8862 20.4565V18.8491C32.8862 18.6276 32.7067 18.4481 32.4852 18.4481L25.618 18.4468C25.6506 18.1845 25.6674 17.9172 25.6674 17.646C25.6674 17.0921 25.5973 16.5547 25.4653 16.042L32.4852 16.0418ZM19.2507 12.8335C21.9087 12.8335 24.0632 14.9881 24.0632 17.646C24.0632 20.3039 21.9087 22.4585 19.2507 22.4585C16.5928 22.4585 14.4382 20.3039 14.4382 17.646C14.4382 14.9881 16.5928 12.8335 19.2507 12.8335ZM19.2507 15.2397C17.9218 15.2397 16.8445 16.3171 16.8445 17.646C16.8445 18.9749 17.9218 20.0522 19.2507 20.0522C20.5796 20.0522 21.657 18.9749 21.657 17.646C21.657 16.3171 20.5796 15.2397 19.2507 15.2397ZM10.4278 4.81259C13.0856 4.81259 15.2403 6.96724 15.2403 9.62511C15.2403 12.283 13.0856 14.4376 10.4278 14.4376C7.76989 14.4376 5.61524 12.283 5.61524 9.62511C5.61524 6.96724 7.76989 4.81259 10.4278 4.81259ZM28.0737 4.81259C30.7316 4.81259 32.8862 6.96724 32.8862 9.62511C32.8862 12.283 30.7316 14.4376 28.0737 14.4376C25.4157 14.4376 23.2612 12.283 23.2612 9.62511C23.2612 6.96724 25.4157 4.81259 28.0737 4.81259ZM10.4278 7.21885C9.09882 7.21885 8.0215 8.29617 8.0215 9.62511C8.0215 10.9541 9.09882 12.0314 10.4278 12.0314C11.7567 12.0314 12.834 10.9541 12.834 9.62511C12.834 8.29617 11.7567 7.21885 10.4278 7.21885ZM28.0737 7.21885C26.7448 7.21885 25.6674 8.29617 25.6674 9.62511C25.6674 10.9541 26.7448 12.0314 28.0737 12.0314C29.4026 12.0314 30.4799 10.9541 30.4799 9.62511C30.4799 8.29617 29.4026 7.21885 28.0737 7.21885Z" fill="#328BF2"/>
</svg>
