<svg width="49" height="48" viewBox="0 0 49 48" fill="none" xmlns="http://www.w3.org/2000/svg">
<circle cx="24.3014" cy="24.0534" r="23.8053" fill="#328BF2"/>
<g clip-path="url(#clip0_70_2825)">
<path d="M28.521 22.4742L28.6247 22.4547C28.7489 22.4314 28.861 22.3655 28.9417 22.2683C29.0224 22.171 29.0666 22.0487 29.0666 21.9223V20.6009C29.0666 20.4746 29.0224 20.3522 28.9417 20.255C28.861 20.1577 28.7489 20.0918 28.6247 20.0685L27.0934 19.7812C26.95 19.7554 26.8159 19.6924 26.7044 19.5985C26.593 19.5045 26.5082 19.383 26.4584 19.246C26.3886 19.0479 26.3083 18.8536 26.2181 18.6639C26.1566 18.5319 26.1309 18.3862 26.1433 18.2412C26.1557 18.0962 26.206 17.957 26.289 17.8375L27.1683 16.5522C27.2396 16.4479 27.2722 16.322 27.2605 16.1962C27.2487 16.0704 27.1935 15.9527 27.1041 15.8634L26.1698 14.929C26.0805 14.8397 25.9627 14.7844 25.837 14.7727C25.7112 14.761 25.5853 14.7936 25.481 14.8649L24.1956 15.7442C24.0761 15.8272 23.9369 15.8775 23.7919 15.8899C23.6469 15.9024 23.5011 15.8766 23.3692 15.8151C23.1795 15.7248 22.9852 15.6446 22.7871 15.5747C22.6501 15.525 22.5286 15.4401 22.4347 15.3287C22.3408 15.2173 22.2778 15.0831 22.252 14.9397L21.9647 13.4084C21.9414 13.2842 21.8754 13.1721 21.7782 13.0914C21.681 13.0108 21.5586 12.9666 21.4323 12.9666H20.1109C19.9845 12.9666 19.8622 13.0108 19.765 13.0914C19.6678 13.1721 19.6018 13.2842 19.5786 13.4084L19.2913 14.9396C19.2654 15.083 19.2024 15.2172 19.1086 15.3286C19.0147 15.44 18.8932 15.5249 18.7563 15.5747C18.5581 15.6446 18.3638 15.7248 18.1741 15.8151C18.0422 15.8766 17.8964 15.9023 17.7514 15.8899C17.6064 15.8775 17.4672 15.8272 17.3477 15.7442L16.062 14.8649C15.9577 14.7936 15.8318 14.761 15.706 14.7727C15.5802 14.7844 15.4625 14.8397 15.3732 14.929L14.4389 15.8634C14.3496 15.9527 14.2943 16.0704 14.2826 16.1962C14.2709 16.322 14.3035 16.4479 14.3748 16.5522L15.2541 17.8375C15.3371 17.957 15.3874 18.0962 15.3998 18.2412C15.4122 18.3862 15.3865 18.532 15.325 18.6639C15.2347 18.8536 15.1545 19.0479 15.0846 19.2461C15.0348 19.383 14.95 19.5046 14.8385 19.5985C14.7271 19.6924 14.593 19.7554 14.4496 19.7812L12.9183 20.0685C12.7941 20.0918 12.682 20.1578 12.6014 20.255C12.5207 20.3522 12.4765 20.4746 12.4766 20.6009V21.9223C12.4765 22.0487 12.5207 22.171 12.6014 22.2682C12.682 22.3655 12.7941 22.4314 12.9183 22.4547L14.4496 22.742C14.593 22.7678 14.7271 22.8308 14.8386 22.9247C14.95 23.0186 15.0348 23.1402 15.0846 23.2771C15.1545 23.4753 15.2347 23.6696 15.3251 23.8593C15.3865 23.9912 15.4123 24.1369 15.3999 24.2819C15.3874 24.4269 15.3372 24.5661 15.2542 24.6857L14.3748 25.9709C14.3036 26.0752 14.2709 26.2011 14.2826 26.3269C14.2944 26.4527 14.3496 26.5705 14.439 26.6598L15.3733 27.5942C15.4627 27.6835 15.5804 27.7388 15.7062 27.7505C15.832 27.7622 15.9579 27.7295 16.0621 27.6582L17.3475 26.779C17.467 26.696 17.6062 26.6457 17.7513 26.6333C17.8963 26.6208 18.042 26.6466 18.1739 26.7081C18.3637 26.7984 18.558 26.8786 18.7561 26.9485C18.8931 26.9983 19.0146 27.0831 19.1085 27.1945C19.2024 27.306 19.2654 27.4401 19.2913 27.5835L19.5785 29.1148C19.6018 29.2389 19.6677 29.351 19.7649 29.4317C19.8622 29.5124 19.9845 29.5566 20.1109 29.5566H21.4323C21.5586 29.5566 21.681 29.5124 21.7782 29.4317C21.8754 29.351 21.9414 29.2389 21.9647 29.1148L22.0016 28.918C22.1098 27.2316 22.8336 25.6437 24.0354 24.4558C25.2373 23.268 26.8335 22.5628 28.521 22.4743V22.4742ZM20.7716 24.336C20.1635 24.336 19.5691 24.1557 19.0636 23.8178C18.558 23.48 18.1639 22.9998 17.9312 22.4381C17.6985 21.8763 17.6376 21.2581 17.7563 20.6617C17.8749 20.0654 18.1677 19.5176 18.5977 19.0876C19.0277 18.6576 19.5755 18.3648 20.1719 18.2462C20.7682 18.1276 21.3864 18.1885 21.9482 18.4212C22.5099 18.6539 22.9901 19.0479 23.3279 19.5535C23.6657 20.0591 23.846 20.6535 23.846 21.2616C23.846 21.6653 23.7665 22.0651 23.612 22.4381C23.4575 22.8111 23.2311 23.15 22.9456 23.4355C22.6601 23.721 22.3212 23.9475 21.9481 24.102C21.5751 24.2565 21.1754 24.336 20.7716 24.336Z" fill="white"/>
<path d="M36.5702 35.5062L33.7501 32.6378C34.5559 31.4437 34.8922 29.9941 34.6947 28.5672C34.4971 27.1403 33.7796 25.8366 32.6797 24.9063C31.5799 23.976 30.1752 23.4846 28.7353 23.5265C27.2954 23.5684 25.9216 24.1406 24.8777 25.1332C23.8338 26.1259 23.1933 27.4691 23.079 28.9051C22.9647 30.3411 23.3848 31.7687 24.2585 32.9139C25.1323 34.0592 26.3983 34.8414 27.8134 35.1105C29.2286 35.3796 30.6933 35.1166 31.9264 34.372L34.7927 37.2839C35.0289 37.5175 35.3479 37.648 35.68 37.6471C36.0122 37.6462 36.3304 37.5138 36.5653 37.279C36.8002 37.0441 36.9325 36.7258 36.9334 36.3937C36.9344 36.0616 36.8038 35.7426 36.5702 35.5064V35.5062ZM28.9077 32.3958C28.3123 32.3958 27.7303 32.2193 27.2353 31.8885C26.7402 31.5578 26.3544 31.0876 26.1265 30.5376C25.8987 29.9875 25.8391 29.3823 25.9552 28.7983C26.0714 28.2144 26.3581 27.678 26.779 27.257C27.2 26.836 27.7364 26.5493 28.3203 26.4331C28.9043 26.317 29.5095 26.3766 30.0596 26.6044C30.6096 26.8322 31.0798 27.2181 31.4106 27.7131C31.7414 28.2081 31.9179 28.7901 31.9179 29.3855C31.9179 30.1839 31.6008 30.9495 31.0362 31.5141C30.4717 32.0786 29.7061 32.3958 28.9077 32.3958Z" fill="white"/>
</g>
<defs>
<clipPath id="clip0_70_2825">
<rect width="25.9695" height="25.9695" fill="white" transform="translate(12.0312 12.5114)"/>
</clipPath>
</defs>
</svg>
