<svg width="48" height="48" viewBox="0 0 48 48" fill="none" xmlns="http://www.w3.org/2000/svg">
<path d="M24 48C37.2548 48 48 37.2548 48 24C48 10.7452 37.2548 0 24 0C10.7452 0 0 10.7452 0 24C0 37.2548 10.7452 48 24 48Z" fill="#328BF2"/>
<path d="M23.2283 11.5657C23.6647 11.5657 24.1005 11.5657 24.5369 11.5657C24.6158 11.5777 24.6954 11.5896 24.7744 11.6022C25.5138 11.7196 26.2717 11.7699 26.9904 11.9652C31.0443 13.0676 33.8926 15.5549 35.5068 19.4222C35.8112 20.1508 35.7253 20.8442 35.205 21.4497C34.6928 22.0458 34.0271 22.2512 33.2636 22.066C32.555 21.8938 32.1306 21.4057 31.8647 20.7481C31.1669 19.0233 30.025 17.6521 28.4228 16.7031C25.6256 15.0468 22.7344 14.9481 19.8729 16.4801C17.4573 17.7734 16.0211 19.8424 15.5481 22.5414C15.2632 24.1657 15.4685 25.7455 16.1266 27.2542C16.8718 28.9626 18.061 30.298 19.6853 31.2333C21.5913 32.3312 23.6338 32.6327 25.781 32.183C27.1881 31.8878 28.4373 31.2484 29.5255 30.3131C29.7395 30.129 29.9132 29.8979 30.1084 29.6856C29.5021 29.6856 28.8819 29.6932 28.263 29.6837C27.4489 29.6711 26.8824 29.1046 26.8666 28.2962C26.8597 27.9432 26.8597 27.5896 26.8666 27.2359C26.8824 26.4043 27.459 25.834 28.2977 25.8321C30.5106 25.8284 32.7236 25.8284 34.9365 25.8321C35.7702 25.8334 36.3575 26.4125 36.3594 27.2428C36.3651 29.4519 36.3645 31.6604 36.3594 33.8695C36.3575 34.6961 35.7898 35.2583 34.9593 35.274C34.6283 35.2802 34.2968 35.2771 33.9658 35.2745C33.0552 35.2683 32.4887 34.7017 32.4855 33.7953C32.4842 33.4945 32.4855 33.193 32.4855 32.8388C32.3358 32.97 32.2304 33.0649 32.1224 33.1572C29.9157 35.0415 27.3643 36.0961 24.4567 36.2249C21.8155 36.3417 19.3645 35.6772 17.1636 34.2149C14.2048 32.2496 12.3897 29.5135 11.7424 26.0262C11.6565 25.5633 11.6129 25.0922 11.5504 24.6249C11.5504 24.1431 11.5504 23.6607 11.5504 23.179C11.5642 23.1099 11.5864 23.0414 11.5914 22.9711C11.731 21.0409 12.2912 19.2369 13.308 17.5906C15.2765 14.4036 18.1153 12.4476 21.8193 11.7561C22.2848 11.6694 22.7591 11.6266 23.2289 11.5632L23.2283 11.5657Z" fill="white"/>
<path d="M22.7191 25.4477C22.8076 25.3271 22.8518 25.2473 22.9137 25.1852C24.6018 23.5031 26.2918 21.8223 27.9818 20.142C28.4668 19.6596 28.8483 19.6591 29.3314 20.1396C29.4799 20.2871 29.634 20.4297 29.7723 20.5868C30.0564 20.9089 30.0521 21.316 29.7596 21.6319C29.574 21.8329 29.3744 22.0207 29.1799 22.2136C27.2499 24.1324 25.3205 26.0513 23.3905 27.9703C22.8948 28.4633 22.5158 28.4652 22.0263 27.9791C20.6616 26.6223 19.2968 25.2656 17.9327 23.9089C17.4527 23.4315 17.4508 23.0389 17.9251 22.566C18.0508 22.4409 18.1745 22.314 18.3021 22.1916C18.688 21.8216 19.1143 21.8204 19.4964 22.1991C20.4974 23.1903 21.4952 24.1852 22.4937 25.1801C22.5562 25.2423 22.6073 25.3146 22.7185 25.4484L22.7191 25.4477Z" fill="white"/>
</svg>
