<svg width="49" height="48" viewBox="0 0 49 48" fill="none" xmlns="http://www.w3.org/2000/svg">
<circle cx="24.3249" cy="24.0493" r="23.8034" fill="#328BF2"/>
<path d="M21.0749 25.9728C22.9012 25.9728 24.5542 25.2323 25.751 24.0355C26.9464 22.84 27.687 21.187 27.687 19.3608C27.687 17.5345 26.9464 15.8815 25.751 14.686C24.5542 13.4893 22.9012 12.7487 21.0749 12.7487C19.2487 12.7487 17.5957 13.4893 16.3989 14.686C15.2034 15.8815 14.4629 17.5345 14.4629 19.3608C14.4629 21.187 15.2034 22.84 16.3989 24.0355C17.5957 25.2323 19.2487 25.9728 21.0749 25.9728Z" fill="white"/>
<path d="M21.0731 35.2297C25.7254 35.2297 29.0076 33.9073 29.0076 32.5849C29.0076 29.94 25.8946 27.2952 21.0731 27.2952C16.1141 27.2952 13.1387 29.94 13.1387 32.5849C13.1387 33.9073 16.1141 35.2297 21.0731 35.2297Z" fill="white"/>
<path d="M36.9424 23.328H34.2976V20.6832C34.2976 19.9519 33.7065 19.3608 32.9752 19.3608C32.2439 19.3608 31.6528 19.9519 31.6528 20.6832V23.328H29.008C28.2767 23.328 27.6855 23.9191 27.6855 24.6504C27.6855 25.3817 28.2767 25.9728 29.008 25.9728H31.6528V28.6176C31.6528 29.3489 32.2439 29.9401 32.9752 29.9401C33.7065 29.9401 34.2976 29.3489 34.2976 28.6176V25.9728H36.9424C37.6737 25.9728 38.2648 25.3817 38.2648 24.6504C38.2648 23.9191 37.6737 23.328 36.9424 23.328Z" fill="white"/>
</svg>
