<svg width="33" height="33" viewBox="0 0 33 33" fill="none" xmlns="http://www.w3.org/2000/svg">
<g clip-path="url(#clip0_70_2868)">
<path d="M19.2493 28.8638C18.0449 29.1837 16.8034 29.3454 15.5569 29.3484C7.52385 29.3817 0.992188 22.8447 0.992188 14.82C0.992188 6.79609 7.49709 0.291565 15.5206 0.291565C23.5445 0.291565 30.049 6.79609 30.049 14.82C30.049 16.3344 29.8079 17.8599 29.3408 19.301C31.1602 20.6342 32.2354 22.7407 32.2354 25.0047C32.2354 28.907 29.0717 32.0707 25.1694 32.0707C22.7713 32.0707 20.5551 30.8629 19.2493 28.8638ZM25.1694 21.612L26.0077 24.2093L28.7364 24.2039L26.526 25.8036L27.3742 28.3974L25.1694 26.789L22.9647 28.3974L23.8129 25.8036L21.602 24.2039L24.3312 24.2093L25.1694 21.612ZM25.1694 19.5269C22.1643 19.5269 19.6916 21.9697 19.6916 25.0047C19.6916 28.0297 22.1444 30.4822 25.1694 30.4822C28.1944 30.4822 30.6469 28.0297 30.6469 25.0047C30.6469 21.9487 28.1642 19.5269 25.1694 19.5269ZM27.9326 18.4994C28.2881 17.2996 28.4609 16.0722 28.4609 14.82C28.4609 13.481 28.2575 12.1898 27.8799 10.9751H23.0893C23.267 12.2002 23.3622 13.4894 23.3622 14.82C23.3622 15.9575 23.2892 17.1035 23.1462 18.2322C23.7872 18.0411 24.4665 17.9383 25.1694 17.9383C26.1499 17.9383 27.084 18.1382 27.9326 18.4994ZM19.9393 20.2535H16.3149V27.6513C17.0622 27.4453 17.7112 26.9648 18.2441 26.4148C18.1519 25.9592 18.1034 25.4875 18.1034 25.0047C18.1034 23.1753 18.7987 21.508 19.9393 20.2535ZM14.7263 20.2535H9.85817C10.4384 22.7824 11.9918 26.8926 14.7263 27.6502V20.2535ZM16.3149 1.98984V9.38651H21.1831C20.6032 6.85763 19.0498 2.74744 16.3149 1.98984ZM16.3149 10.9751V18.6649H21.4873C21.6849 17.3894 21.7736 16.1108 21.7736 14.82C21.7736 13.4806 21.6731 12.1898 21.4862 10.9751H16.3149ZM14.7263 18.6649V10.9751H9.55543C9.36852 12.1898 9.26799 13.4806 9.26799 14.82C9.26799 16.1594 9.36852 17.4502 9.55543 18.6649H14.7263ZM14.7263 9.38651V1.98984C11.9918 2.74744 10.4384 6.85763 9.85817 9.38651H14.7263ZM7.95233 10.9751H3.16138C2.78411 12.1898 2.58076 13.481 2.58076 14.82C2.58076 16.159 2.78411 17.4502 3.16138 18.6649H7.95233C7.77459 17.4402 7.67942 16.1506 7.67942 14.82C7.67942 13.4894 7.77459 12.1998 7.95233 10.9751ZM8.23634 20.2535H3.77334C5.23845 23.4154 7.9336 25.8716 11.2239 27.0294C9.66667 25.1603 8.73821 22.6008 8.23634 20.2535ZM8.23634 9.38651C8.73821 7.03957 9.66667 4.47935 11.2239 2.6106C7.93399 3.76839 5.23807 6.22465 3.77334 9.38651H8.23634ZM19.8177 2.6106C21.375 4.47973 22.3034 7.03957 22.8053 9.38651H27.2679C25.8032 6.22465 23.1076 3.76839 19.8177 2.6106Z" fill="#328BF2"/>
</g>
<defs>
<clipPath id="clip0_70_2868">
<rect width="32.3625" height="32.3625" fill="white" transform="translate(0.433594)"/>
</clipPath>
</defs>
</svg>
