<svg width="198" height="55" viewBox="0 0 198 55" fill="none" xmlns="http://www.w3.org/2000/svg">
<path d="M100.7 4.2542V15.0745H98.8073V4.2542H100.7Z" fill="black"/>
<path d="M105.67 15.0745H103.777V6.41827C103.777 5.00749 104.58 4.06006 106.262 4.06006C107.769 4.06006 108.442 4.83664 108.893 6.06363L112.051 12.9752C112.107 13.1103 112.203 13.2253 112.326 13.3051C112.449 13.385 112.593 13.4261 112.739 13.423C112.823 13.4317 112.907 13.4222 112.987 13.3952C113.066 13.3682 113.139 13.3243 113.2 13.2665C113.261 13.2087 113.309 13.1384 113.34 13.0604C113.371 12.9824 113.385 12.8986 113.381 12.8147V4.2542H115.289V12.8949C115.289 14.3213 114.471 15.2687 112.804 15.2687C111.297 15.2687 110.609 14.4921 110.158 13.2625L107 6.35356C106.956 6.21222 106.865 6.08974 106.743 6.00538C106.622 5.92103 106.475 5.87959 106.327 5.88761C106.241 5.87656 106.153 5.88489 106.071 5.91201C105.988 5.93912 105.912 5.98432 105.849 6.04433C105.786 6.10434 105.738 6.17765 105.706 6.2589C105.675 6.34016 105.663 6.42732 105.67 6.51405V15.0745Z" fill="black"/>
<path d="M126.723 4.2542V6.14646H121.175C120.197 6.14646 119.765 6.67713 119.765 7.44076C119.765 8.09827 120.101 8.73506 121.367 8.73506H123.901C126.85 8.73506 127.541 10.3711 127.541 11.9268C127.541 13.7544 126.562 15.1004 124.093 15.1004H118.064V13.2082H124.157C125.193 13.2082 125.648 12.649 125.648 11.8621C125.648 11.158 125.278 10.516 123.948 10.516H121.432C118.545 10.516 117.872 8.89556 117.872 7.38899C117.872 5.59251 118.833 4.28268 121.238 4.28268L126.723 4.2542ZM121.382 0.259995L122.441 2.24804C122.48 2.29933 122.531 2.33966 122.59 2.36508C122.649 2.39049 122.714 2.40012 122.778 2.393C122.837 2.40194 122.898 2.39293 122.953 2.36711C123.007 2.34129 123.052 2.29983 123.083 2.24804L124.157 0.259995H125.969L124.51 2.87448C124.204 3.46727 123.596 3.70801 122.762 3.70801C121.929 3.70801 121.318 3.44915 121.015 2.87448L119.57 0.259995H121.382Z" fill="black"/>
<path d="M137.015 4.2542V6.14646H133.857V15.0771H131.949V6.14646H128.791V4.25678L137.015 4.2542Z" fill="black"/>
<path d="M141.17 4.2542V15.0745H139.277V4.2542H141.17Z" fill="black"/>
<path d="M151.638 4.2542V6.14646H148.48V15.0771H146.572V6.14646H143.414V4.25678L151.638 4.2542Z" fill="black"/>
<path d="M155.744 4.2542V11.4842C155.744 12.5584 156.29 13.1823 157.54 13.1823H159.463C160.683 13.1823 161.244 12.5584 161.244 11.4842V4.2542H163.103V11.6291C163.103 13.9045 161.902 15.0745 159.593 15.0745H157.315C155.006 15.0745 153.82 13.9045 153.82 11.6291V4.2542H155.744ZM160.491 0.259995L158.485 3.70801H156.802L158.599 0.259995H160.491Z" fill="black"/>
<path d="M173.494 4.2542V6.14646H170.335V15.0771H168.428V6.14646H165.272V4.25678L173.494 4.2542Z" fill="black"/>
<path d="M91.0234 23.9508C94.1815 23.9508 95.8977 25.7163 95.8977 29.3714C95.8977 33.0265 94.197 34.7738 91.0234 34.7738H87.2078C86.5995 34.7738 86.3096 34.4864 86.3096 33.891V24.831C86.3096 24.2382 86.5995 23.9482 87.2078 23.9482L91.0234 23.9508ZM88.2018 32.6899C88.2018 32.8349 88.2666 32.8815 88.4089 32.8815H91.0234C93.1228 32.8815 94.0055 31.8461 94.0055 29.3558C94.0055 26.8656 93.1228 25.8431 91.0234 25.8431H88.4089C88.2666 25.8431 88.2018 25.8923 88.2018 26.0372V32.6899Z" fill="black"/>
<path d="M100.5 23.9508V34.7738H98.608V23.9508H100.5Z" fill="black"/>
<path d="M112.54 23.9508V25.8431H108.085C105.998 25.8431 105.085 26.8785 105.085 29.3714C105.085 31.8642 105.983 32.8815 108.085 32.8815H109.876C110.935 32.8815 111.383 32.2395 111.383 31.3594C111.383 30.4793 110.935 29.9797 110.052 29.9797H107.65V28.3282H110.239C112.162 28.3282 113.107 29.5163 113.107 31.3905C113.107 33.2646 112.162 34.7738 109.742 34.7738H108.074C104.916 34.7738 103.185 32.9954 103.185 29.3714C103.185 25.7473 104.932 23.9508 108.074 23.9508H112.54Z" fill="black"/>
<path d="M117.657 23.9508V34.7738H115.765V23.9508H117.657Z" fill="black"/>
<path d="M128.126 23.9508V25.8431H124.968V34.7738H123.06V25.8431H119.902V23.9508H128.126Z" fill="black"/>
<path d="M130.339 34.7738H128.268L132.068 25.1545C132.469 24.145 133.207 23.7593 134.344 23.7593C135.48 23.7593 136.205 24.145 136.59 25.1545L140.246 34.7738H138.144L134.846 26.0787C134.813 25.9659 134.742 25.8677 134.645 25.8005C134.549 25.7332 134.432 25.7007 134.315 25.7085C134.197 25.7028 134.079 25.7358 133.981 25.8026C133.883 25.8694 133.81 25.9663 133.771 26.0787L130.339 34.7738ZM136.293 19.9592L134.289 23.4072H132.607L134.401 19.9592H136.293Z" fill="black"/>
<path d="M143.455 23.9508V31.0229C143.455 32.0583 143.973 32.8815 145.669 32.8815H149.867V34.7738H145.555C142.687 34.7738 141.563 33.2025 141.563 31.0384V23.9508H143.455Z" fill="black"/>
<path d="M154.007 34.7738H152.114V26.1149C152.114 24.7041 152.917 23.7593 154.599 23.7593C156.106 23.7593 156.779 24.5359 157.229 25.7629L160.387 32.6744C160.444 32.8097 160.54 32.9249 160.662 33.0048C160.785 33.0847 160.929 33.1257 161.076 33.1222C161.16 33.1309 161.244 33.1214 161.324 33.0944C161.403 33.0674 161.476 33.0235 161.537 32.9657C161.598 32.9079 161.646 32.8376 161.677 32.7596C161.708 32.6816 161.722 32.5978 161.718 32.5139V23.9508H163.626V32.5942C163.626 34.0205 162.808 34.9653 161.141 34.9653C159.634 34.9653 158.943 34.1887 158.495 32.9617L155.337 26.0528C155.293 25.9114 155.202 25.789 155.08 25.7046C154.958 25.6202 154.812 25.5788 154.664 25.5868C154.578 25.5753 154.49 25.5833 154.407 25.6102C154.324 25.6371 154.248 25.6823 154.185 25.7424C154.122 25.8026 154.073 25.8761 154.042 25.9576C154.011 26.039 153.999 26.1264 154.007 26.2133V34.7738Z" fill="black"/>
<path d="M167.892 23.9508L170.923 28.5844L173.985 23.9508H176.23L171.868 30.1091V34.7686H169.96V30.1091L165.598 23.9508H167.892Z" fill="black"/>
<path d="M185.784 23.9508V25.8431H181.601C179.517 25.8431 178.603 26.8785 178.603 29.3714C178.603 31.8642 179.499 32.8815 181.601 32.8815H185.784V34.7738H181.601C178.443 34.7738 176.711 32.9954 176.711 29.3714C176.711 25.7473 178.458 23.9508 181.601 23.9508H185.784Z" fill="black"/>
<path d="M190.42 23.9508V28.3515H195.952V23.9508H197.86V34.7738H195.952V30.2515H190.42V34.7738H188.528V23.9508H190.42Z" fill="black"/>
<path d="M78.4842 43.6501V54.473H76.592V43.6501H78.4842Z" fill="black"/>
<path d="M83.4544 54.473H81.5621V45.8141C81.5621 44.4033 82.3646 43.4585 84.0471 43.4585C85.5537 43.4585 86.2267 44.2351 86.6772 45.4621L89.8352 52.3736C89.8915 52.5089 89.9874 52.6241 90.1103 52.704C90.2331 52.7839 90.3773 52.8249 90.5238 52.8215C90.6074 52.8301 90.6918 52.8207 90.7714 52.7936C90.8509 52.7666 90.9237 52.7227 90.9847 52.6649C91.0457 52.6071 91.0934 52.5368 91.1247 52.4589C91.1559 52.3809 91.17 52.297 91.1658 52.2131V43.6501H93.0736V52.2934C93.0736 53.7197 92.2556 54.6645 90.5885 54.6645C89.082 54.6645 88.3908 53.888 87.943 52.661L84.7849 45.752C84.7403 45.6107 84.65 45.4882 84.5281 45.4038C84.4063 45.3195 84.2598 45.278 84.1119 45.286C84.0255 45.2745 83.9376 45.2825 83.8547 45.3094C83.7718 45.3364 83.696 45.3815 83.6329 45.4417C83.5699 45.5018 83.521 45.5753 83.4901 45.6568C83.4592 45.7383 83.447 45.8256 83.4544 45.9125V54.473Z" fill="black"/>
<path d="M102.11 43.6501C105.253 43.6501 107 45.4465 107 49.0861C107 52.7257 105.268 54.473 102.11 54.473H100.635C97.4768 54.473 95.745 52.7101 95.745 49.0861C95.745 45.4621 97.4923 43.6501 100.635 43.6501H102.11ZM100.635 45.5423C98.551 45.5423 97.6373 46.6011 97.6373 49.0861C97.6373 51.5712 98.5329 52.5807 100.635 52.5807H102.11C104.194 52.5807 105.092 51.5453 105.092 49.0706C105.092 46.5959 104.194 45.5423 102.11 45.5423H100.635Z" fill="black"/>
<path d="M110.151 43.6501L113.438 52.3555C113.471 52.4661 113.54 52.5625 113.633 52.6295C113.727 52.6966 113.841 52.7304 113.956 52.7257C114.073 52.7307 114.188 52.6972 114.284 52.6303C114.38 52.5634 114.451 52.4669 114.486 52.3555L117.932 43.6501H120.034L116.229 53.2589C115.827 54.2711 115.09 54.6542 113.966 54.6542C112.907 54.6542 112.092 54.3177 111.691 53.2589L108.067 43.6397L110.151 43.6501Z" fill="black"/>
<path d="M121.921 54.473H119.85L123.648 44.8538C124.049 43.8442 124.786 43.4585 125.925 43.4585C127.064 43.4585 127.784 43.8442 128.17 44.8538L131.825 54.473H129.726L126.438 45.7675C126.405 45.657 126.337 45.5606 126.243 45.4935C126.149 45.4264 126.035 45.3926 125.92 45.3974C125.801 45.3915 125.684 45.4244 125.585 45.4912C125.487 45.558 125.413 45.655 125.374 45.7675L121.921 54.473ZM127.875 39.6584L125.871 43.1065H124.189L125.985 39.6584H127.875Z" fill="black"/>
<path d="M141.931 43.6501V45.5423H137.745C135.674 45.5423 134.747 46.5778 134.747 49.0706C134.747 51.5634 135.646 52.5807 137.745 52.5807H141.931V54.473H137.745C134.587 54.473 132.855 52.692 132.855 49.0706C132.855 45.4491 134.602 43.6501 137.745 43.6501H141.931Z" fill="black"/>
<path d="M146.564 43.6501V54.473H144.672V43.6501H146.564Z" fill="black"/>
<path d="M152.642 39.6584L150.636 43.1065H148.964L150.76 39.6584H152.642ZM151.553 43.6501V54.473H149.663V43.6501H151.553Z" fill="black"/>
<path d="M70.6227 16.5086C74.0152 16.5086 76.7654 13.7584 76.7654 10.3659C76.7654 6.97334 74.0152 4.22314 70.6227 4.22314C67.2301 4.22314 64.4799 6.97334 64.4799 10.3659C64.4799 13.7584 67.2301 16.5086 70.6227 16.5086Z" fill="black"/>
<path d="M58.8445 36.7825C62.2371 36.7825 64.9873 34.0323 64.9873 30.6398C64.9873 27.2472 62.2371 24.497 58.8445 24.497C55.452 24.497 52.7018 27.2472 52.7018 30.6398C52.7018 34.0323 55.452 36.7825 58.8445 36.7825Z" fill="black"/>
<path d="M46.7429 54.473C49.7537 54.473 52.1945 52.0322 52.1945 49.0214C52.1945 46.0106 49.7537 43.5698 46.7429 43.5698C43.732 43.5698 41.2913 46.0106 41.2913 49.0214C41.2913 52.0322 43.732 54.473 46.7429 54.473Z" fill="black"/>
<path d="M46.7429 15.776C49.7537 15.776 52.1945 13.3353 52.1945 10.3245C52.1945 7.31364 49.7537 4.87288 46.7429 4.87288C43.732 4.87288 41.2913 7.31364 41.2913 10.3245C41.2913 13.3353 43.732 15.776 46.7429 15.776Z" fill="black"/>
<path d="M36.461 35.4183C39.1287 35.4183 41.2913 33.2557 41.2913 30.588C41.2913 27.9203 39.1287 25.7577 36.461 25.7577C33.7933 25.7577 31.6306 27.9203 31.6306 30.588C31.6306 33.2557 33.7933 35.4183 36.461 35.4183Z" fill="black"/>
<path d="M26.7589 14.5206C29.0292 14.5206 30.8696 12.6802 30.8696 10.4099C30.8696 8.13962 29.0292 6.29919 26.7589 6.29919C24.4886 6.29919 22.6482 8.13962 22.6482 10.4099C22.6482 12.6802 24.4886 14.5206 26.7589 14.5206Z" fill="black"/>
<path d="M27.5174 52.5471C29.7876 52.5471 31.6281 50.7066 31.6281 48.4364C31.6281 46.1661 29.7876 44.3257 27.5174 44.3257C25.2471 44.3257 23.4067 46.1661 23.4067 48.4364C23.4067 50.7066 25.2471 52.5471 27.5174 52.5471Z" fill="black"/>
<path d="M14.4864 33.8522C16.3363 33.8522 17.836 32.3525 17.836 30.5026C17.836 28.6526 16.3363 27.1529 14.4864 27.1529C12.6364 27.1529 11.1367 28.6526 11.1367 30.5026C11.1367 32.3525 12.6364 33.8522 14.4864 33.8522Z" fill="black"/>
<path d="M3.68155 51.3848C5.23986 51.3848 6.50313 50.1215 6.50313 48.5632C6.50313 47.0049 5.23986 45.7416 3.68155 45.7416C2.12324 45.7416 0.859985 47.0049 0.859985 48.5632C0.859985 50.1215 2.12324 51.3848 3.68155 51.3848Z" fill="black"/>
</svg>
