<svg width="71" height="21" viewBox="0 0 71 21" fill="none" xmlns="http://www.w3.org/2000/svg">
<path d="M21.384 7.78366C21.3687 7.78366 21.3547 7.78494 21.3394 7.78494C21.2681 7.36529 21.2071 6.94308 21.1218 6.52601C20.7094 4.52916 20.0578 2.59905 19.5296 0.633012C19.471 0.416131 19.3438 0.432815 19.1898 0.432815C17.7338 0.434098 16.2778 0.443081 14.8218 0.425115C14.5163 0.421265 14.417 0.50853 14.3674 0.812676C13.9207 3.53074 13.4561 6.24496 12.9954 8.96046C12.723 10.5659 12.4506 12.17 12.1796 13.7755C12.1528 13.932 12.0917 14.0847 12.3768 14.0822C13.8125 14.0693 15.2481 14.0732 16.6838 14.0796C16.8709 14.0809 16.9218 14.0154 16.9396 13.8371C17.1865 11.3513 17.5199 8.87448 17.7019 6.37842C17.7732 6.65434 17.819 6.9341 17.8865 7.20873C18.4389 9.4648 19.1821 11.6657 19.8083 13.8999C19.858 14.0783 19.9661 14.0783 20.1049 14.077C20.8889 14.0745 21.6729 14.0616 22.4569 14.0835C22.7165 14.0912 22.8005 13.9962 22.8654 13.7626C23.5412 11.3102 24.3965 8.90913 24.9323 6.33222C25.0482 7.88889 25.2034 9.36214 25.3676 10.8341C25.4796 11.8325 25.584 12.8309 25.6934 13.8294C25.7074 13.9603 25.7087 14.0822 25.9124 14.0809C27.3785 14.0719 28.8447 14.0745 30.3109 14.0783C30.4573 14.0783 30.5044 14.0475 30.4751 13.8858C30.3809 13.3622 30.3046 12.8348 30.2218 12.3086C29.826 9.78948 29.4302 7.27161 29.0344 4.75246C28.8231 3.40754 28.6156 2.06134 28.3993 0.716428C28.3802 0.595796 28.4145 0.427681 28.1804 0.428965C26.6225 0.437948 25.0647 0.434098 23.5069 0.432815C23.3898 0.432815 23.3249 0.467464 23.288 0.590663C22.7534 2.42581 22.1196 4.23272 21.7072 6.10379C21.5838 6.66075 21.4896 7.22413 21.384 7.78366ZM6.94862 0.123535C6.64316 0.140218 6.33643 0.140218 6.03479 0.176151C5.71279 0.214651 5.39079 0.271117 5.07515 0.349399C2.5806 0.966675 1.12713 2.95838 1.30022 5.5263C1.34986 6.26164 1.61586 6.9187 2.10332 7.47823C2.78041 8.25335 3.67133 8.62038 4.6437 8.83341C5.14897 8.94506 5.6657 9.01821 6.13152 9.2646C6.37462 9.39293 6.58971 9.55335 6.5528 9.87546C6.51589 10.195 6.29316 10.3516 6.01443 10.4337C5.56134 10.5672 5.10697 10.5094 4.6577 10.3991C3.78333 10.1847 3.02351 9.73045 2.29168 9.22739C2.12496 9.11317 2.06387 9.13371 1.99132 9.31594C1.5395 10.4453 1.07877 11.5707 0.616767 12.6949C0.560766 12.8322 0.530221 12.9246 0.696949 13.0157C2.78423 14.1566 4.98097 14.7303 7.36098 14.3093C9.50554 13.9295 11.3421 12.3779 11.6526 10.1437C11.8296 8.86934 11.6437 7.68997 10.7083 6.72364C10.0706 6.06529 9.26372 5.75858 8.3919 5.57635C7.75553 5.44417 7.11535 5.31327 6.54134 4.98346C6.34407 4.87053 6.15698 4.73193 6.18625 4.46115C6.2168 4.17625 6.41152 4.03894 6.65716 3.95937C6.91298 3.87595 7.17389 3.86312 7.44117 3.88237C8.33208 3.94397 9.10972 4.30715 9.83009 4.80764C9.99172 4.92057 10.049 4.91288 10.1254 4.72294C10.5517 3.67191 10.9883 2.62472 11.4274 1.57882C11.4872 1.43765 11.4948 1.35424 11.3332 1.27082C9.95609 0.561146 8.51026 0.124818 6.94862 0.123535ZM31.842 7.2344C31.842 9.39807 31.8458 11.5617 31.8369 13.7254C31.8357 13.9898 31.8802 14.086 32.1755 14.0835C35.0162 14.0706 37.8557 14.0719 40.6964 14.0809C40.9408 14.0822 41.0235 14.036 41.0197 13.769C41.0019 12.7437 41.0044 11.7183 41.0184 10.6929C41.0223 10.4401 40.9612 10.3683 40.7041 10.3708C39.4313 10.3849 38.1586 10.3734 36.8871 10.3824C36.6797 10.3837 36.5982 10.3375 36.6122 10.1142C36.6313 9.81771 36.63 9.5187 36.6122 9.22225C36.5995 9.00922 36.6606 8.94377 36.8782 8.94634C37.9779 8.95789 39.0775 8.94377 40.1759 8.95789C40.4304 8.96046 40.5259 8.91811 40.5195 8.62936C40.4979 7.67586 40.5017 6.72235 40.517 5.76885C40.5208 5.51603 40.4597 5.4416 40.2026 5.44545C39.1132 5.46085 38.0237 5.44417 36.9355 5.457C36.6937 5.45957 36.5817 5.4185 36.611 5.14644C36.6364 4.91287 36.6326 4.67418 36.6122 4.43933C36.5906 4.1955 36.6746 4.13133 36.9139 4.13262C38.1357 4.14545 39.3575 4.13133 40.5781 4.14417C40.825 4.14673 40.9077 4.09027 40.9039 3.82847C40.8886 2.8031 40.8899 1.77773 40.9039 0.752361C40.9077 0.502114 40.8479 0.425115 40.5883 0.426398C37.7781 0.436665 34.9691 0.435381 32.1589 0.426398C31.912 0.425115 31.8344 0.476447 31.8357 0.740811C31.8471 2.90705 31.842 5.07072 31.842 7.2344ZM57.354 12.256C57.3463 13.5894 58.0858 14.2439 59.3496 13.9474C61.1175 13.5329 62.2604 12.3612 62.996 10.7404C63.2645 10.1488 63.3358 9.51998 63.2378 8.87833C63.1525 8.31752 62.9744 7.79521 62.4653 7.47694C62.2565 7.34604 62.1445 7.20873 62.1369 6.94693C62.1255 6.58119 61.9422 6.42077 61.5858 6.37329C61.1505 6.31426 60.784 6.45286 60.4824 6.76855C60.3449 6.91228 60.1909 7.0188 59.9885 7.04832C59.4616 7.1266 59.2083 7.37941 59.1613 7.89915C59.1434 8.09165 59.0747 8.2495 58.9703 8.40606C58.6318 8.91554 58.2271 9.35957 57.8007 9.80103C57.1274 10.4992 56.4962 11.2371 55.7198 11.8261C55.4525 12.0289 55.1751 12.2201 54.8403 12.3009C54.5081 12.3818 54.3223 12.2445 54.3338 11.9005C54.3401 11.708 54.3758 11.513 54.4254 11.3269C54.7907 9.93193 55.268 8.57418 55.7643 7.22285C56.2327 5.94723 56.8194 4.72294 57.3934 3.49481C57.6772 2.88652 57.5932 2.57852 57.1109 2.17299C56.8474 1.95098 56.6438 1.9497 56.3765 2.16914C56.1131 2.38474 55.9909 2.69274 55.8521 2.98662C54.8174 5.18622 53.9329 7.44743 53.1769 9.75868C52.8689 10.7006 52.5939 11.6618 52.5621 12.6603C52.529 13.6831 53.168 14.1643 54.1403 13.9012C55.0096 13.6664 55.7109 13.1492 56.3625 12.5525C56.6629 12.2778 56.9429 11.9775 57.2318 11.6901C57.2725 11.649 57.3094 11.5836 57.3807 11.631C57.4316 11.6657 57.4062 11.7209 57.4011 11.7696C57.3832 11.9301 57.3692 12.093 57.354 12.256ZM63.7036 20.6194C63.9836 20.622 64.2509 20.5809 64.5144 20.4885C65.1126 20.278 65.6802 20.0098 66.1957 19.6377C67.4429 18.7355 68.1875 17.4701 68.6826 16.0444C69.2948 14.2811 69.6079 12.4434 69.9591 10.6159C70.0368 10.2143 70.1742 9.80103 70.1335 9.40834C70.1055 9.12601 70.1831 9.02077 70.3626 8.87319C70.7622 8.54338 70.9022 8.02364 70.7469 7.54111C70.5726 6.99827 70.22 6.72235 69.6511 6.67359C69.0962 6.62739 68.5731 6.76598 68.092 7.01751C66.1473 8.03519 64.7447 9.55592 63.9887 11.6426C63.822 12.1046 63.724 12.591 63.8487 13.0902C64.0193 13.7755 64.5067 14.0629 65.1711 13.8576C65.3455 13.8037 65.5109 13.7254 65.6789 13.6535C66.4578 13.3212 67.0878 12.7655 67.7433 12.2483C67.8184 12.1893 67.8795 12.052 67.9864 12.102C68.1022 12.1559 68.022 12.2868 68.0106 12.3792C67.9355 13.0311 67.7815 13.6677 67.6326 14.3055C67.3144 15.6799 66.8664 16.9992 65.9857 18.1285C65.6751 18.5263 65.3366 18.8882 64.8835 19.1269C64.1771 19.5003 63.7189 19.4606 63.1347 18.9151C62.3698 18.2029 61.7971 18.484 61.2549 19.1487C61.022 19.4349 61.0615 19.6633 61.3211 19.938C61.5464 20.1767 61.8276 20.3281 62.1382 20.3871C62.6562 20.4885 63.1818 20.545 63.7036 20.6194ZM48.0147 8.21485C47.9943 8.20202 47.9739 8.19047 47.9536 8.17763C48.049 7.89017 48.1381 7.60014 48.2399 7.31524C48.7847 5.79708 49.3358 4.28277 49.8728 2.76332C49.967 2.49511 50.0421 2.19738 49.799 1.95611C49.5648 1.72511 49.2836 1.82265 49.0201 1.89066C48.8852 1.92531 48.7567 1.99718 48.6345 2.06648C48.2756 2.26924 48.0503 2.55285 48.0337 2.99303C48.021 3.32028 47.9001 3.63084 47.7881 3.93884C46.873 6.48365 45.9312 9.01949 45.2274 11.6362C45.0988 12.1136 44.9448 12.5845 45.2923 13.0376C45.3165 13.0684 45.3317 13.1133 45.333 13.1518C45.3534 13.5522 45.6296 13.7331 45.9439 13.882C46.2876 14.0437 46.635 13.9872 46.9876 13.9089C48.2985 13.6163 49.3205 12.8438 50.2559 11.9249C51.0578 11.137 51.759 10.2848 52.0887 9.17991C52.277 8.54723 52.3419 7.91584 52.0607 7.29086C51.8621 6.8494 51.5223 6.63637 51.0412 6.67359C50.4392 6.71979 49.9008 6.95592 49.3994 7.27675C48.931 7.57576 48.4754 7.90044 48.0147 8.21485Z" fill="#424242"/>
<path d="M21.3845 7.78365C21.4914 7.22412 21.5843 6.66074 21.7065 6.10507C22.1188 4.23399 22.7527 2.42836 23.2872 0.591938C23.3229 0.467456 23.3878 0.432807 23.5061 0.43409C25.064 0.436657 26.6218 0.439223 28.1796 0.43024C28.4151 0.428957 28.3794 0.597071 28.3985 0.717703C28.6149 2.06262 28.8223 3.40882 29.0336 4.75373C29.4294 7.27288 29.8253 9.79075 30.2211 12.3099C30.3038 12.8361 30.3802 13.3635 30.4743 13.8871C30.5036 14.0488 30.4565 14.0796 30.3102 14.0796C28.844 14.0757 27.3778 14.0732 25.9116 14.0822C25.7092 14.0834 25.708 13.9615 25.6927 13.8306C25.5832 12.8322 25.4789 11.8338 25.3669 10.8354C25.2027 9.36341 25.0461 7.89016 24.9316 6.3335C24.3958 8.91168 23.5392 11.3128 22.8647 13.7639C22.801 13.9975 22.7158 14.0911 22.4561 14.0847C21.6734 14.0629 20.8881 14.0757 20.1041 14.0783C19.9654 14.0783 19.8572 14.0796 19.8076 13.9012C19.1814 11.667 18.4381 9.46607 17.8857 7.21C17.8183 6.93537 17.7725 6.65433 17.7012 6.3797C17.5192 8.87575 17.187 11.3525 16.9388 13.8383C16.921 14.0167 16.8701 14.0822 16.683 14.0809C15.2474 14.0732 13.8117 14.0693 12.3761 14.0834C12.091 14.086 12.1521 13.9333 12.1788 13.7767C12.4499 12.1713 12.7223 10.5672 12.9946 8.96173C13.4554 6.24623 13.9199 3.53202 14.3666 0.813952C14.4163 0.509806 14.5168 0.42254 14.821 0.42639C16.277 0.444357 17.733 0.43409 19.189 0.43409C19.343 0.43409 19.4703 0.417407 19.5288 0.634288C20.057 2.59905 20.7087 4.53044 21.121 6.52728C21.2076 6.94436 21.2674 7.36657 21.3387 7.78621C21.3539 7.78493 21.3692 7.78365 21.3845 7.78365Z" fill="#424242"/>
<path d="M6.94787 0.123535C8.50824 0.124818 9.95534 0.561146 11.3337 1.27082C11.4953 1.35424 11.4877 1.43765 11.4279 1.57882C10.9888 2.62472 10.551 3.67062 10.1259 4.72294C10.0495 4.91287 9.99225 4.92057 9.83061 4.80764C9.11024 4.30586 8.3326 3.94397 7.44169 3.88237C7.17569 3.8644 6.9135 3.87595 6.65768 3.95937C6.41077 4.04022 6.21605 4.17625 6.18677 4.46115C6.1575 4.73321 6.34459 4.87052 6.54187 4.98346C7.11587 5.31327 7.75605 5.44417 8.39242 5.57635C9.26424 5.7573 10.0712 6.06529 10.7088 6.72363C11.6443 7.68869 11.8301 8.86805 11.6532 10.1437C11.3426 12.3779 9.50606 13.9295 7.36151 14.3093C4.98149 14.7315 2.78348 14.1566 0.697475 13.0157C0.530747 12.9246 0.56002 12.8322 0.617293 12.6949C1.07929 11.5707 1.53875 10.444 1.99184 9.31593C2.06439 9.1337 2.12548 9.11317 2.29221 9.22738C3.02403 9.73044 3.78513 10.1847 4.65822 10.3991C5.1075 10.5094 5.56059 10.5672 6.01495 10.4337C6.29368 10.3516 6.51641 10.1963 6.55332 9.87546C6.59023 9.55335 6.37514 9.39293 6.13205 9.2646C5.66623 9.0182 5.1495 8.94377 4.64422 8.8334C3.67185 8.61909 2.77967 8.25335 2.10385 7.47822C1.61639 6.91998 1.35166 6.26292 1.30075 5.5263C1.12639 2.95838 2.57985 0.966674 5.0744 0.349399C5.39004 0.271117 5.71204 0.214651 6.03404 0.176151C6.33696 0.140218 6.64368 0.140218 6.94787 0.123535Z" fill="#424242"/>
<path d="M31.8423 7.23441C31.8423 5.07074 31.8474 2.90706 31.836 0.743391C31.8347 0.479028 31.9123 0.427695 32.1592 0.428978C34.9694 0.437961 37.7783 0.437961 40.5885 0.428978C40.8482 0.427695 40.908 0.504694 40.9042 0.754941C40.8902 1.78031 40.8889 2.80568 40.9042 3.83105C40.908 4.09413 40.8253 4.14932 40.5784 4.14675C39.3565 4.13392 38.1347 4.14803 36.9142 4.1352C36.6736 4.13263 36.5896 4.1968 36.6125 4.44191C36.6342 4.67548 36.6367 4.91546 36.6113 5.14902C36.582 5.42108 36.694 5.46343 36.9358 5.45958C38.0253 5.44675 39.1147 5.46215 40.2029 5.44803C40.46 5.44418 40.5224 5.51862 40.5173 5.77143C40.502 6.72493 40.4982 7.67844 40.5198 8.63194C40.5262 8.92069 40.4307 8.96304 40.1762 8.96047C39.0765 8.94764 37.9769 8.96047 36.8785 8.94892C36.6596 8.94636 36.5985 9.01181 36.6125 9.22484C36.6303 9.52128 36.6316 9.8203 36.6125 10.1167C36.5972 10.34 36.68 10.3862 36.8874 10.385C38.1602 10.376 39.4329 10.3888 40.7044 10.3734C40.9627 10.3708 41.0225 10.4414 41.0187 10.6955C41.0035 11.7209 41.0022 12.7463 41.02 13.7716C41.0251 14.0386 40.9411 14.0848 40.6967 14.0835C37.856 14.0745 35.0165 14.0732 32.1758 14.086C31.8818 14.0873 31.836 13.9911 31.8372 13.728C31.8461 11.563 31.8423 9.39809 31.8423 7.23441Z" fill="#424242"/>
<path d="M57.3549 12.256C57.3702 12.093 57.3842 11.93 57.4007 11.7671C57.4058 11.7183 57.4313 11.6631 57.3804 11.6285C57.3091 11.581 57.2722 11.6464 57.2314 11.6875C56.9425 11.975 56.6625 12.2752 56.3622 12.5499C55.7105 13.1453 55.008 13.6638 54.14 13.8986C53.1676 14.1617 52.5287 13.6805 52.5618 12.6577C52.5936 11.6593 52.8685 10.6981 53.1765 9.7561C53.9325 7.44485 54.8171 5.18364 55.8518 2.98404C55.9905 2.69016 56.1127 2.38088 56.3762 2.16656C56.6434 1.9484 56.8471 1.9484 57.1105 2.17041C57.5929 2.57722 57.6782 2.88522 57.3931 3.49223C56.8191 4.72165 56.2323 5.94465 55.764 7.22026C55.2676 8.5716 54.7916 9.92935 54.4251 11.3243C54.3767 11.5117 54.3398 11.7055 54.3334 11.898C54.322 12.2432 54.5078 12.3792 54.84 12.2983C55.1747 12.2175 55.4522 12.0263 55.7194 11.8235C56.4958 11.2345 57.1271 10.4966 57.8004 9.79845C58.2254 9.35699 58.6302 8.91296 58.97 8.40348C59.0744 8.24692 59.1431 8.09035 59.1609 7.89657C59.208 7.37683 59.4613 7.12402 59.9882 7.04573C60.1906 7.01622 60.3433 6.9097 60.482 6.76597C60.7836 6.45027 61.1502 6.31168 61.5855 6.37071C61.9431 6.41947 62.1251 6.57989 62.1366 6.94435C62.1442 7.20615 62.2562 7.34475 62.4649 7.47436C62.9753 7.79262 63.1535 8.31365 63.2375 8.87574C63.3355 9.51868 63.2642 10.1462 62.9957 10.7378C62.2613 12.3587 61.1171 13.529 59.3493 13.9448C58.0867 14.2439 57.3473 13.5894 57.3549 12.256ZM61.7382 9.08877C61.7255 8.95659 61.7242 8.82184 61.6975 8.69223C61.6517 8.4715 61.6046 8.2328 61.3475 8.16222C61.0891 8.09164 60.9618 8.30723 60.8307 8.46508C60.4655 8.90526 60.1536 9.38394 59.8851 9.89085C59.5555 10.5145 59.2398 11.1459 59.1711 11.8633C59.1444 12.1482 59.1355 12.4716 59.4155 12.6371C59.6955 12.8027 59.9551 12.6179 60.16 12.4369C61.1642 11.5527 61.5549 10.3695 61.7382 9.08877ZM57.3893 11.5065C57.3778 11.5348 57.3664 11.5604 57.3587 11.5887C57.3587 11.5912 57.402 11.6092 57.4033 11.6066C57.416 11.5835 57.4274 11.5592 57.4338 11.5335C57.4351 11.5284 57.4071 11.5168 57.3893 11.5065Z" fill="#424242"/>
<path d="M63.704 20.6194C63.1822 20.545 62.6566 20.4885 62.1386 20.3897C61.828 20.3307 61.5468 20.1792 61.3215 19.9405C61.0618 19.6659 61.0224 19.4362 61.2553 19.1513C61.7988 18.4865 62.3715 18.2055 63.1351 18.9177C63.7206 19.4631 64.1788 19.5029 64.8839 19.1295C65.337 18.8895 65.6755 18.5276 65.9861 18.1311C66.8668 17.0017 67.3148 15.6825 67.633 14.3081C67.7806 13.6703 67.9359 13.0337 68.011 12.3818C68.0212 12.2894 68.1026 12.1585 67.9868 12.1046C67.8812 12.0546 67.8188 12.1919 67.7437 12.2509C67.0883 12.7681 66.4582 13.3238 65.6793 13.6561C65.5113 13.728 65.3446 13.8063 65.1715 13.8602C64.5084 14.0642 64.021 13.7781 63.8491 13.0928C63.7244 12.5936 63.8224 12.1072 63.9891 11.6452C64.7451 9.55722 66.1477 8.03778 68.0924 7.02011C68.5735 6.76858 69.0954 6.62869 69.6516 6.67618C70.2205 6.72366 70.5743 7.00086 70.7474 7.5437C70.9014 8.02494 70.7626 8.54597 70.363 8.87578C70.1836 9.02336 70.1059 9.1286 70.1339 9.41093C70.1734 9.80362 70.0359 10.2168 69.9596 10.6185C69.6083 12.446 69.2952 14.2837 68.683 16.047C68.1879 17.4727 67.4421 18.7381 66.1961 19.6402C65.6819 20.0124 65.113 20.2819 64.5148 20.4911C64.2513 20.5809 63.984 20.622 63.704 20.6194ZM65.687 11.6747C65.6895 12.0558 65.8282 12.1572 66.1121 12.025C66.2762 11.948 66.4353 11.8479 66.5728 11.7299C67.3173 11.0908 68.0263 10.417 68.5557 9.57647C68.7377 9.28901 68.9426 9.01566 69.2901 8.91813C69.4721 8.8668 69.6274 8.80135 69.6095 8.58062C69.593 8.36759 69.4288 8.30342 69.2494 8.26621C68.613 8.13403 68.0644 8.35989 67.5643 8.71793C66.639 9.37884 66.1095 10.3221 65.7468 11.377C65.7073 11.4912 65.6971 11.6157 65.687 11.6747Z" fill="#424242"/>
<path d="M48.0151 8.21489C48.4771 7.90047 48.9314 7.57579 49.4011 7.2755C49.9025 6.95467 50.4422 6.71854 51.0429 6.67234C51.524 6.63512 51.8638 6.84815 52.0624 7.28961C52.3424 7.91587 52.2787 8.54727 52.0904 9.17866C51.7607 10.2836 51.0582 11.137 50.2576 11.9237C49.3209 12.8438 48.3002 13.6151 46.9893 13.9077C46.6367 13.986 46.2893 14.0437 45.9456 13.8807C45.6313 13.7319 45.3551 13.5509 45.3347 13.1505C45.3322 13.112 45.3169 13.0671 45.294 13.0363C44.9478 12.5833 45.1005 12.1123 45.2291 11.6349C45.9329 9.01824 46.8747 6.48241 47.7898 3.93759C47.9005 3.62959 48.0227 3.31903 48.0354 2.99178C48.052 2.55032 48.2773 2.26671 48.6362 2.06523C48.7596 1.99593 48.8869 1.92406 49.0218 1.88941C49.2853 1.8214 49.5665 1.72387 49.8007 1.95486C50.0438 2.19484 49.97 2.49386 49.8745 2.76207C49.3374 4.28152 48.7851 5.79712 48.2416 7.314C48.1398 7.59889 48.0494 7.88892 47.9553 8.17639C47.9731 8.1905 47.9947 8.20205 48.0151 8.21489ZM46.7729 11.9519C46.7513 12.3998 46.8696 12.5089 47.2082 12.4524C47.5238 12.3998 47.814 12.2715 48.0673 12.079C49.0193 11.3552 49.7969 10.4735 50.376 9.41992C50.4447 9.29672 50.4956 9.15941 50.5351 9.02338C50.6076 8.76543 50.6929 8.48182 50.446 8.2829C50.208 8.09169 49.9509 8.2367 49.7371 8.36118C49.0409 8.768 48.3765 9.22614 47.8318 9.82802C47.2578 10.4607 46.9065 11.2127 46.7729 11.9519Z" fill="#424242"/>
<path d="M61.7367 9.08884C61.5534 10.3696 61.1627 11.5528 60.1598 12.4383C59.9549 12.6192 59.6952 12.8028 59.4152 12.6385C59.134 12.4729 59.1441 12.1496 59.1709 11.8647C59.2383 11.1473 59.5552 10.5159 59.8849 9.89219C60.1521 9.38528 60.464 8.90661 60.8305 8.46643C60.9616 8.30858 61.0901 8.09298 61.3472 8.16357C61.6031 8.23415 61.6514 8.47285 61.6972 8.69358C61.7227 8.82191 61.724 8.95666 61.7367 9.08884Z" fill="white"/>
<path d="M57.3884 11.5066C57.4065 11.5169 57.4349 11.5284 57.4336 11.5323C57.4284 11.5579 57.4168 11.5836 57.4026 11.6054C57.4013 11.608 57.3574 11.59 57.3574 11.5874C57.3652 11.5605 57.3768 11.5348 57.3884 11.5066Z" fill="#424242"/>
<path d="M65.6875 11.6747C65.699 11.6156 65.7079 11.4912 65.7473 11.3769C66.1088 10.3221 66.6395 9.37882 67.5648 8.71792C68.065 8.36116 68.6135 8.13529 69.2499 8.26619C69.4293 8.30341 69.5922 8.36757 69.6101 8.5806C69.6279 8.80133 69.4739 8.86678 69.2906 8.91812C68.9431 9.01565 68.7382 9.28771 68.5562 9.57646C68.0268 10.417 67.3179 11.0908 66.5733 11.7299C66.4359 11.8479 66.2755 11.948 66.1126 12.025C65.8288 12.1572 65.69 12.0558 65.6875 11.6747Z" fill="white"/>
<path d="M46.772 11.9518C46.9056 11.2127 47.2569 10.4593 47.8296 9.82795C48.3744 9.22736 49.0387 8.76793 49.7349 8.36112C49.95 8.23535 50.2058 8.09034 50.4438 8.28284C50.6908 8.48175 50.6055 8.76665 50.5329 9.02331C50.4948 9.15934 50.4426 9.29537 50.3738 9.41986C49.7935 10.4722 49.0171 11.3538 48.0651 12.0789C47.8118 12.2714 47.5216 12.3984 47.206 12.4523C46.8687 12.5088 46.7504 12.3997 46.772 11.9518Z" fill="white"/>
</svg>
